<?xml version="1.0" encoding="utf-8"?>
<!-- Generator: Adobe Illustrator 16.0.0, SVG Export Plug-In . SVG Version: 6.00 Build 0)  -->
<!DOCTYPE svg PUBLIC "-//W3C//DTD SVG 1.1//EN" "http://www.w3.org/Graphics/SVG/1.1/DTD/svg11.dtd">
<svg version="1.1" xmlns="http://www.w3.org/2000/svg" xmlns:xlink="http://www.w3.org/1999/xlink" x="0px" y="0px" width="200px"
	 height="321.829px" viewBox="0 0 200 321.829" enable-background="new 0 0 200 321.829" xml:space="preserve">
<g id="Layer_1">
	<g>
		<path fill="#1E75BC" d="M199.959,308.139c0,8.014-6.495,14.51-14.508,14.51H14.508C6.496,322.648,0,316.152,0,308.139v-35.322
			c0-8.014,6.496-14.51,14.508-14.51h170.943c8.013,0,14.508,6.496,14.508,14.51V308.139z"/>
		<path fill="#24313D" d="M99.942,0C82.129,0,67.69,14.438,67.69,32.246c0,17.813,14.438,32.251,32.252,32.251
			c17.808,0,32.246-14.438,32.246-32.251C132.188,14.438,117.75,0,99.942,0z M99.942,55.037c-12.565,0-22.791-10.225-22.791-22.791
			c0-12.559,10.226-22.783,22.791-22.783c12.564,0,22.783,10.225,22.783,22.783C122.726,44.813,112.507,55.037,99.942,55.037z"/>
		<path fill="#394452" d="M199.959,283.539c0,8.014-6.495,14.51-14.508,14.51H14.508C6.496,298.049,0,291.553,0,283.539V89.887
			c0-8.013,6.496-14.506,14.508-14.506h170.943c8.013,0,14.508,6.493,14.508,14.506V283.539z"/>
		<path fill="#27A9E1" d="M199.959,105.156c0,8.291-6.534,15.01-14.595,15.01H14.659C6.6,120.166,0,113.447,0,105.156V41.859
			c0-8.291,6.6-15.05,14.659-15.05h170.705c8.061,0,14.595,6.759,14.595,15.05V105.156z"/>
		<rect y="224.829" fill="#FFFFFF" width="200" height="12"/>
		<g>
			<polygon fill="#FFFFFF" points="46,24.829 46,163.059 39,168.111 32,163.059 32,24.829 			"/>
			<rect x="24.601" y="135.304" fill="#84D1EC" width="27.755" height="17.661"/>
		</g>
		<g>
			<polygon fill="#FFFFFF" points="168,24.829 168,163.059 161,168.111 154,163.059 154,24.829 			"/>
			<rect x="147.604" y="135.304" fill="#84D1EC" width="27.754" height="17.661"/>
		</g>
	</g>
</g>
</svg>
