<?xml version="1.0" encoding="utf-8"?>
<!-- Generator: Adobe Illustrator 16.0.0, SVG Export Plug-In . SVG Version: 6.00 Build 0)  -->
<!DOCTYPE svg PUBLIC "-//W3C//DTD SVG 1.1//EN" "http://www.w3.org/Graphics/SVG/1.1/DTD/svg11.dtd">
<svg version="1.1" id="Layer_1" xmlns="http://www.w3.org/2000/svg" xmlns:xlink="http://www.w3.org/1999/xlink" x="0px" y="0px"
	 width="19.99px" height="20px" viewBox="0 0 19.99 20" enable-background="new 0 0 19.99 20" xml:space="preserve">
<path fill="#FFFFFF" d="M13.22,10.016l6.368-6.373c0.535-0.534,0.535-1.404,0-1.945l-1.297-1.297c-0.534-0.535-1.404-0.535-1.945,0
	L9.977,6.773L3.644,0.44c-0.534-0.535-1.404-0.535-1.945,0L0.401,1.737c-0.535,0.535-0.535,1.405,0,1.946l6.333,6.333l-6.326,6.323
	c-0.535,0.535-0.535,1.404,0,1.946l1.297,1.297c0.535,0.534,1.405,0.534,1.945,0l6.327-6.323l6.34,6.34
	c0.534,0.535,1.405,0.535,1.945,0l1.298-1.298c0.534-0.534,0.534-1.404,0-1.945L13.22,10.016z"/>
<g>
</g>
<g>
</g>
<g>
</g>
<g>
</g>
<g>
</g>
<g>
</g>
<g>
</g>
<g>
</g>
<g>
</g>
<g>
</g>
<g>
</g>
<g>
</g>
<g>
</g>
<g>
</g>
<g>
</g>
</svg>
