<?xml version="1.0" encoding="utf-8"?>
<!-- Generator: Adobe Illustrator 16.0.0, SVG Export Plug-In . SVG Version: 6.00 Build 0)  -->
<!DOCTYPE svg PUBLIC "-//W3C//DTD SVG 1.1//EN" "http://www.w3.org/Graphics/SVG/1.1/DTD/svg11.dtd">
<svg version="1.1" id="Layer_1" xmlns="http://www.w3.org/2000/svg" xmlns:xlink="http://www.w3.org/1999/xlink" x="0px" y="0px"
	 width="350px" height="350px" viewBox="0 0 350 350" enable-background="new 0 0 350 350" xml:space="preserve">
<g>
	<path fill="#212C3B" d="M84.13,323.95c-0.05,0.05-0.1,0.09-0.16,0.13c0.02-0.01,0.04-0.021,0.05-0.03
		c0.03-0.01,0.05-0.04,0.08-0.06c0.01,0,0.02-0.01,0.03-0.03c0.06-0.06,0.12-0.11,0.18-0.17v-0.01
		C84.25,323.84,84.19,323.89,84.13,323.95z"/>
	<path fill="#212C3B" d="M83.08,324.61c0.05-0.014,0.1-0.03,0.14-0.054c0.03-0.01,0.05-0.02,0.07-0.04
		C83.22,324.55,83.15,324.58,83.08,324.61z"/>
	<path fill="#212C3B" d="M82.24,324.89c-0.09,0.03-0.18,0.054-0.27,0.063c0.01,0.01,0.01,0.01,0.01,0.01c0.01,0,0.02,0,0.03-0.01
		c0.01,0,0.03,0,0.04-0.01c0.05,0,0.1-0.014,0.14-0.03c0.06-0.01,0.11-0.021,0.16-0.04C82.31,324.87,82.28,324.88,82.24,324.89z"/>
	<path fill="#212C3B" d="M84.13,323.95c-0.05,0.05-0.1,0.09-0.16,0.13c0.02-0.01,0.04-0.021,0.05-0.03
		c0.03-0.01,0.05-0.04,0.08-0.06c0.01,0,0.02-0.01,0.03-0.03c0.06-0.06,0.12-0.11,0.18-0.17v-0.01
		C84.25,323.84,84.19,323.89,84.13,323.95z"/>
	<path fill="#212C3B" d="M83.08,324.61c0.05-0.014,0.1-0.03,0.14-0.054c0.03-0.01,0.05-0.02,0.07-0.04
		C83.22,324.55,83.15,324.58,83.08,324.61z"/>
	<path fill="#212C3B" d="M82.24,324.89c-0.09,0.03-0.18,0.054-0.27,0.063c0.01,0.01,0.01,0.01,0.01,0.01c0.01,0,0.02,0,0.03-0.01
		c0.01,0,0.03,0,0.04-0.01c0.05,0,0.1-0.014,0.14-0.03c0.06-0.01,0.11-0.021,0.16-0.04C82.31,324.87,82.28,324.88,82.24,324.89z"/>
	<path fill="#212C3B" d="M84.78,323.21c0.05-0.05,0.08-0.11,0.12-0.16c0.02-0.02,0.03-0.04,0.04-0.066
		C84.89,323.06,84.84,323.13,84.78,323.21z"/>
	<path fill="#212C3B" d="M84.02,324.05c0.04-0.04,0.07-0.066,0.11-0.1c-0.05,0.05-0.1,0.09-0.16,0.13
		C83.99,324.07,84.01,324.06,84.02,324.05z"/>
	<path fill="#212C3B" d="M176.25,180.85c-7.23,4.9-13.44,10.03-20.45,13.563c-6.35,3.188-13.61,2.76-19.7-1.439
		c-2.13-1.471-3.84-4.511-4.37-7.101c-0.77-3.86,1.79-6.57,5.51-7.54c3.75-0.971,6.13,0.938,7.84,5.068
		c-1.19-0.561-1.71-1.01-2.24-1.021c-1.63-0.06-3.26,0.05-4.88,0.101c0.12,1.381-0.28,3.392,0.46,3.979
		c1.3,1.06,3.67,2.14,4.92,1.62c2.29-0.971,4.33-2.9,6.04-4.811c2.18-2.432,3.88-5.271,5.89-7.859c4.8-6.18,10.45-7.67,17.86-5.07
		c1.34,0.47,3.13,0.41,4.479-0.07c6.979-2.46,11.66-1.37,16.688,4.34c3.66,4.16,7,8.621,10.92,12.5
		c1.11,1.102,4.142,1.352,5.61,0.621c1.12-0.541,1.188-3.25,1.729-4.989c-1.561-0.15-3.131-0.421-4.688-0.392
		c-0.642,0-1.271,0.631-2.67,1.392c1.72-5,4.608-6.36,8.608-5.261c3.771,1.039,6.08,5.828,4.68,9.539
		c-2,5.301-6.568,7.021-11.608,7.779c-10.37,1.57-18.448-3.08-25.698-9.75C179.141,184.18,177.37,182.04,176.25,180.85z"/>
	<path fill="#212C3B" d="M308.74,318.01c-0.66-1.54-1.32-3.067-1.95-4.62c-2.64-6.438-5.28-12.88-7.92-19.31
		c-2.64-6.439-5.271-12.891-7.9-19.33c-2.629-6.439-5.26-12.88-7.88-19.33c-2.62-6.449-5.24-12.9-7.85-19.35
		c-1.211-3.012-2.62-4.563-6.19-4.932c-19.22-2.021-38.39-4.421-58.22-6.761c0.63-5.608-1.189-9.778-8.311-10.67
		c2.051-1.271,3.17-2.01,4.33-2.681c2.698-1.551,5.25-3.239,7.648-5.069c1.199-0.91,2.359-1.858,3.479-2.84h0.01
		c1.121-0.979,2.201-1.99,3.24-3.03c0.521-0.529,1.039-1.05,1.539-1.59c0.512-0.53,1-1.068,1.48-1.62c0,0,0,0,0-0.01
		c0.061-0.052,0.109-0.103,0.14-0.16c0.08-0.069,0.142-0.149,0.19-0.22c0.04-0.021,0.06-0.051,0.06-0.07
		c0.021-0.01,0.03-0.021,0.03-0.029c0.35-0.391,0.68-0.779,1-1.181c0.46-0.569,0.92-1.142,1.359-1.71
		c0.438-0.568,0.871-1.148,1.301-1.74v-0.01c0.85-1.182,1.65-2.38,2.41-3.59v-0.012c0.77-1.221,1.49-2.471,2.16-3.729
		c0,0,0,0,0-0.01c0.34-0.631,0.67-1.271,0.979-1.91c0.32-0.641,0.63-1.29,0.92-1.939c0.301-0.658,0.59-1.311,0.859-1.971
		c0.551-1.33,1.061-2.67,1.521-4.02c0.229-0.67,0.45-1.35,0.66-2.04c0,0-0.01,0,0-0.01c0.21-0.68,0.41-1.37,0.59-2.06
		c0.37-1.39,0.69-2.79,0.979-4.19c0.281-1.41,0.521-2.83,0.701-4.26c1.42-10.72,0.22-21.96-3.9-32.85c-0.68-1.8-1.15-3.78-1.17-5.69
		c-0.12-9.83-0.189-19.67,0.07-29.49c0.01-0.16,0.02-0.32,0.049-0.49c0.021-0.17,0.061-0.33,0.101-0.51
		c0.03-0.11,0.062-0.23,0.101-0.35c0.069-0.21,0.149-0.41,0.229-0.62c0.09-0.2,0.19-0.41,0.29-0.61c0.09-0.17,0.189-0.34,0.29-0.5
		c0.03-0.04,0.062-0.09,0.08-0.13c0.12-0.17,0.239-0.34,0.36-0.5c0.147-0.19,0.317-0.38,0.479-0.55c0.25-0.25,0.51-0.47,0.779-0.64
		c1.181-0.75,2.32-1.52,3.4-2.32c0.461-0.34,0.898-0.68,1.35-1.04c3.701-2.92,6.721-6.17,9.031-9.77c0.43-0.67,0.84-1.35,1.209-2.04
		c0.188-0.35,0.381-0.7,0.561-1.05c0.391-0.77,0.75-1.55,1.07-2.36c0.1-0.23,0.199-0.46,0.279-0.69c0.311-0.8,0.6-1.62,0.85-2.46
		c0.08-0.25,0.15-0.51,0.221-0.77c0.08-0.25,0.15-0.51,0.21-0.77c0.03-0.12,0.062-0.23,0.08-0.35c0.11-0.41,0.2-0.83,0.28-1.26
		c0.01-0.04,0.02-0.07,0.029-0.1c0.101-0.48,0.18-0.97,0.26-1.47c0.07-0.44,0.131-0.89,0.181-1.34c0.062-0.37,0.101-0.74,0.12-1.12
		v-0.03c0.04-0.35,0.08-0.7,0.08-1.06c0.17-2.44,0.119-4.99-0.16-7.64c-0.02-0.25-0.051-0.5-0.08-0.75
		c-0.02-0.22-0.04-0.44-0.07-0.67C254.74,34.55,243.73,22.83,227.37,18.5c-0.61-0.15-1.17-0.22-1.729-0.75
		c-0.148-0.13-0.291-0.3-0.431-0.5h-10.83c-0.42,0.17-0.84,0.34-1.26,0.5c-6.979,2.72-13.761,4.61-19.29,9.73
		c-0.689,0.64-2.471,0.85-3.45,0.47c-16.83-6.61-31.11-2.97-43.05,10.48c-0.2,0.21-0.56,0.31-1.11,0.58
		c-8.99-6.82-19.19-9.36-30.4-6.81c-0.71,0.16-1.41,0.34-2.09,0.55c-0.21,0.06-0.41,0.12-0.62,0.19c-0.3,0.09-0.59,0.18-0.88,0.29
		c-0.29,0.1-0.58,0.21-0.87,0.31c-0.26,0.1-0.52,0.2-0.77,0.3c-0.6,0.23-1.19,0.48-1.77,0.76c-0.34,0.15-0.68,0.32-1.01,0.49
		c-1.02,0.5-2.01,1.06-2.96,1.67c-0.2,0.12-0.39,0.25-0.58,0.38c-0.45,0.29-0.9,0.6-1.33,0.92c-0.29,0.21-0.58,0.43-0.87,0.66
		c-0.28,0.22-0.56,0.44-0.84,0.67c-0.31,0.25-0.62,0.51-0.91,0.78c-0.22,0.19-0.44,0.39-0.66,0.6c-0.22,0.2-0.43,0.4-0.64,0.61
		c-2.69,2.65-4.95,5.72-6.67,9.12c-0.35,0.67-0.67,1.36-0.97,2.07v0.01c-0.37,0.84-0.69,1.7-0.99,2.57c-0.9,2.63-1.49,5.4-1.76,8.26
		c-0.99,10.62,2.86,20.97,10.18,28.19c0.6,0.58,1.22,1.15,1.86,1.7c0.96,0.82,1.97,1.59,3.03,2.3c0.71,0.47,1.43,0.92,2.18,1.35
		c0.38,0.21,0.75,0.42,1.14,0.62c0.77,0.4,1.55,0.77,2.36,1.11c0.47,0.2,0.9,0.41,1.29,0.62s0.74,0.43,1.05,0.67
		c0.31,0.23,0.59,0.47,0.84,0.73c0.25,0.26,0.46,0.54,0.64,0.82c0.1,0.14,0.18,0.29,0.26,0.45c0.16,0.31,0.29,0.63,0.39,0.98
		c0.05,0.17,0.1,0.35,0.13,0.54c0.18,0.8,0.25,1.71,0.23,2.76c-0.11,8.36-0.52,16.5-2.22,24.72c-0.26,1.271-0.56,2.53-0.88,3.8
		c-0.17,0.64-0.34,1.27-0.52,1.91c-0.17,0.61-0.34,1.23-0.49,1.84c-0.02,0.09-0.04,0.17-0.06,0.26c-0.02,0.08-0.03,0.16-0.05,0.229
		c-0.03,0.1-0.05,0.19-0.07,0.29c-0.03,0.06-0.04,0.13-0.05,0.19c-0.08,0.3-0.15,0.59-0.2,0.89c-0.04,0.14-0.07,0.28-0.09,0.41
		c-0.02,0.07-0.03,0.15-0.04,0.22c-0.03,0.12-0.06,0.25-0.08,0.37c-0.02,0.06-0.04,0.11-0.04,0.17c-0.08,0.36-0.15,0.72-0.21,1.09
		c-0.01,0.04-0.02,0.08-0.02,0.13c-0.03,0.13-0.05,0.26-0.07,0.39c-0.25,1.45-0.45,2.9-0.6,4.35c-0.03,0.19-0.04,0.35-0.06,0.53
		c-0.04,0.43-0.07,0.85-0.1,1.27c-0.01,0.1-0.01,0.2-0.02,0.3v0.07c-0.02,0.28-0.04,0.55-0.05,0.82v0.01
		c-0.02,0.04-0.02,0.07-0.01,0.11c-0.02,0.18-0.03,0.35-0.03,0.53c-0.01,0.04-0.01,0.09,0,0.13c-0.01,0.01-0.01,0.01,0,0.02
		c-0.01,0.18-0.02,0.36-0.02,0.54c-0.01,0.04-0.01,0.07-0.01,0.11c-0.02,0.36-0.03,0.71-0.02,1.06c-0.01,0.31-0.01,0.62-0.01,0.93
		v0.68c0,0.19,0,0.38,0.01,0.57c0,0.36,0.01,0.72,0.03,1.07c0,0.31,0.02,0.61,0.03,0.91c0.01,0.01,0.01,0.01,0.01,0.02
		c0.03,0.51,0.06,1.01,0.09,1.52v0.06c0.01,0.01,0.01,0.01,0.01,0.02c0,0.05,0.01,0.1,0.01,0.15c0.03,0.31,0.05,0.62,0.08,0.93
		c0.01,0.08,0.02,0.16,0.03,0.24c-0.01,0.03,0,0.07,0.01,0.11c0.02,0.13,0.03,0.26,0.04,0.38c0.01,0.12,0.02,0.25,0.04,0.38
		c0.05,0.48,0.11,0.97,0.18,1.46c0.11,0.89,0.25,1.78,0.41,2.66c0.09,0.52,0.19,1.04,0.3,1.56c0.14,0.69,0.29,1.38,0.46,2.06
		c0.16,0.69,0.33,1.37,0.52,2.05c0.19,0.68,0.39,1.35,0.6,2.02c0.21,0.68,0.43,1.35,0.66,2.01c1.83,5.32,4.37,10.4,7.53,15.11
		c0.79,1.17,1.62,2.319,2.48,3.448c0,0,0.01,0,0.01,0.012c0.87,1.12,1.77,2.229,2.71,3.3c0.94,1.08,1.92,2.13,2.94,3.149
		c0.77,0.779,1.57,1.539,2.39,2.271c3.46,3.16,7.29,5.99,11.46,8.431c1.25,0.729,2.48,1.479,4.46,2.66
		c-5.2,1.109-10.01,1.67-11.11,7.59c-0.07,0.371-0.65,0.682-1.43,0.939c-0.89,0.311-2.03,0.54-2.94,0.7
		c-0.12,0.021-0.23,0.04-0.34,0.062c-14.11,2.5-28.23,5.021-42.37,7.35c-2.02,0.33-4.04,0.66-6.06,0.979
		c-0.35,0.063-0.68,0.12-1,0.2c-0.32,0.069-0.62,0.16-0.9,0.25c-2.47,0.819-3.86,2.399-5,5.21c-1.52,3.78-3.05,7.561-4.57,11.33
		c-3.06,7.561-6.13,15.102-9.2,22.648c-5.06,12.42-10.14,24.819-15.23,37.229c-2.64,6.45-5.28,12.89-7.92,19.34
		c-0.67,1.643-1.6,3.183-2.41,4.761c0.67,0.329,1.31,0.949,1.97,0.949c91.88,0.04,183.759,0.04,275.64,0
		c0.66,0,1.31-0.62,1.97-0.949C312.79,327.18,310.72,322.61,308.74,318.01z"/>
	<path fill="#FFE5BD" d="M119.93,175.12c-5.61-14-5.62-28.07-0.72-42.29c1.21-3.51,2.82-5.1,6.96-5.03
		c11.93,0.24,23.87,0.2,35.81,0.16c4.3-0.01,8.59-0.02,12.88-0.02c6.51,0,13.02,0.04,19.52,0.06c9.24,0.03,18.479,0.02,27.7-0.23
		c4.84-0.12,6.55,1.85,7.949,5.82c10.58,30.1-4.979,63.49-35.021,74.82C165.28,219.63,131.81,204.79,119.93,175.12z"/>
	<path fill="#212C3B" d="M218.49,188.02c-2,5.301-6.57,7.021-11.61,7.78c-10.37,1.57-18.45-3.08-25.7-9.75
		c-2.039-1.87-3.81-4.01-4.93-5.2c-7.23,4.9-13.44,10.03-20.45,13.563c-6.35,3.188-13.61,2.76-19.7-1.439
		c-2.13-1.471-3.84-4.511-4.37-7.101c-0.77-3.86,1.79-6.57,5.51-7.54c3.75-0.971,6.13,0.938,7.84,5.068
		c-1.19-0.561-1.71-1.01-2.24-1.021c-1.63-0.06-3.26,0.05-4.88,0.101c0.12,1.381-0.28,3.392,0.46,3.979
		c1.3,1.06,3.67,2.14,4.92,1.62c2.29-0.971,4.33-2.9,6.04-4.811c2.18-2.432,3.88-5.271,5.89-7.859c4.8-6.18,10.45-7.67,17.86-5.07
		c1.34,0.47,3.13,0.41,4.479-0.07c6.979-2.46,11.66-1.37,16.688,4.34c3.66,4.16,7,8.621,10.92,12.5
		c1.11,1.102,4.142,1.352,5.61,0.621c1.12-0.541,1.188-3.25,1.729-4.989c-1.561-0.15-3.131-0.421-4.688-0.392
		c-0.642,0-1.271,0.631-2.67,1.392c1.72-5,4.608-6.36,8.608-5.261C217.58,179.52,219.891,184.311,218.49,188.02z"/>
	<path fill="#FFFFFF" d="M151,229.27v95.98H97v-0.41c0-1.229-0.23-2.479-0.39-3.75c-0.5-3.82-0.87-7.75-1.31-11.67
		c-0.03-0.21-0.02-0.41-0.04-0.6c-0.1-0.934-0.2-1.86-0.3-2.78c0-0.04-0.01-0.08-0.01-0.12c-0.09-0.84-0.17-1.67-0.27-2.5
		c-0.13-1.01-0.25-2.04-0.37-3.05H94.3v-0.011c0,0,0,0-0.01,0c-0.28-0.08-0.59-0.18-0.89-0.271c-0.27,0.75-0.53,1.49-0.8,2.229
		c-0.34,0.961-0.68,1.933-1.03,2.893c-1.41,3.91-2.81,7.99-4.21,11.94c-0.05,0.14-0.1,0.27-0.14,0.396
		c-0.04,0.13-0.08,0.25-0.12,0.37c-0.05,0.14-0.1,0.28-0.15,0.41c-0.14,0.38-0.27,0.729-0.38,1.06c-0.13,0.33-0.24,0.644-0.35,0.94
		c-0.06,0.147-0.11,0.29-0.17,0.43c-0.05,0.144-0.11,0.271-0.17,0.4c-0.01,0.04-0.03,0.08-0.05,0.12
		c-0.12,0.276-0.24,0.54-0.36,0.79c0,0,0,0-0.01,0.01c-0.12,0.24-0.25,0.47-0.38,0.68c-0.04,0.08-0.08,0.15-0.14,0.221
		c-0.029,0.05-0.063,0.094-0.095,0.139c-0.075,0.104-0.146,0.219-0.225,0.313c-0.04,0.07-0.09,0.13-0.15,0.184
		c-0.04,0.06-0.1,0.118-0.16,0.17c-0.06,0.06-0.12,0.106-0.18,0.17c-0.05,0.05-0.1,0.09-0.16,0.13c-0.01,0.01-0.02,0.02-0.03,0.03
		c0,0-0.01,0-0.01,0.01c-0.06,0.04-0.11,0.08-0.17,0.12c-0.02,0.02-0.05,0.04-0.07,0.05c-0.01,0.01-0.01,0.02-0.02,0.02
		c-0.05,0.021-0.09,0.054-0.14,0.08c-0.08,0.04-0.16,0.094-0.24,0.131c-0.07,0.029-0.14,0.063-0.21,0.093
		c-0.02,0.02-0.05,0.026-0.07,0.04c-0.01,0.01-0.01,0.01-0.02,0.01c0,0,0,0-0.01,0c-0.03,0.01-0.06,0.03-0.1,0.04
		c-0.03,0.01-0.05,0.02-0.08,0.03c-0.1,0.038-0.21,0.066-0.32,0.1l-0.01,0.01c-0.01,0.012-0.03,0.012-0.04,0.012
		c-0.03,0.012-0.05,0.021-0.08,0.021c-0.04,0-0.07,0.01-0.11,0.021c-0.09,0.029-0.18,0.053-0.27,0.063
		c-0.01,0.01-0.01,0.01-0.02,0.01c-0.18,0.04-0.37,0.07-0.57,0.103c-0.3,0.039-0.61,0.067-0.95,0.101
		c-0.17,0.01-0.35,0.021-0.53,0.03c-0.36,0.02-0.75,0.028-1.17,0.04c-0.83,0.02-1.78,0.02-2.86,0.02H46.58
		c0.78-2,1.29-3.58,1.88-5.02c10.59-25.932,21.25-51.86,31.71-77.842c1.19-2.961,2.77-4.352,5.88-4.871
		c14.82-2.459,29.64-5.26,44.49-7.639c2.12-0.342,4.25-0.682,6.37-1.012c0.2-0.029,0.4-0.063,0.59-0.08
		c0.2-0.029,0.39-0.06,0.58-0.068c0.4-0.028,0.79-0.25,1.2-0.262c0.39-0.021,0.77-0.21,1.17-0.21h0.03c0.44,0,0.89,0.189,1.33,0.21
		c0.62,0.03,1.23,0.15,1.85,0.2c0.29,0.021,0.59,0.07,0.89,0.101c0.57,0.051,1.13,0.143,1.7,0.199c0.34,0.04,0.69,0.08,1.03,0.12
		c0.5,0.062,1,0.12,1.5,0.17c0.25,0.021,0.51,0.04,0.75,0.062c0.25,0.021,0.49,0.039,0.74,0.052c0.07,0.01,0.14-0.052,0.2-0.062
		C150.64,229.311,150.82,229.279,151,229.27v-0.02h0.3C151.2,229.25,151.1,229.26,151,229.27z"/>
	<path fill="#FFFFFF" d="M302.88,325.26c-11.78,0-23.239-0.01-34.771-0.01H267.9c-0.063,0-0.131-0.17-0.2-0.2
		c-0.562-0.188-1.19-0.85-1.7-1.55c-0.391-0.5-0.71-1.08-0.891-1.56c-1.149-3.03-2.26-6.094-3.409-9.134
		c-0.011-0.01-0.011-0.02-0.011-0.02c-0.393-1.01-0.779-2.03-1.189-3.04c-1.24-3.17-2.561-6.16-4.09-9.33
		c-0.971,8.14-1.939,15.83-2.939,24.83H160v-96.54c13,0.59,26.59,0.648,39.74,1.91c21.529,2.08,43.068,4.896,64.55,7.59
		c1.3,0.16,3.03,0.95,4.05,1.938c0.09,0.09,0.18,0.17,0.26,0.263c0.16,0.17,0.291,0.34,0.4,0.521c0.05,0.1,0.1,0.188,0.141,0.278
		c11.329,27.222,22.433,54.562,33.569,81.88c0.16,0.393,0.101,1.021,0.16,2.05c0,0.03,0.01,0.07,0.01,0.11V325.26z"/>
	<path fill="#212C3B" d="M82.24,324.89c-0.09,0.03-0.18,0.054-0.27,0.063c0.01,0.01,0.01,0.01,0.01,0.01c0.01,0,0.02,0,0.03-0.01
		c0.01,0,0.03,0,0.04-0.01c0.05,0,0.1-0.014,0.14-0.03c0.06-0.01,0.11-0.021,0.16-0.04C82.31,324.87,82.28,324.88,82.24,324.89z"/>
	<path fill="#212C3B" d="M83.08,324.61c0.05-0.014,0.1-0.03,0.14-0.054c0.03-0.01,0.05-0.02,0.07-0.04
		C83.22,324.55,83.15,324.58,83.08,324.61z"/>
	<path fill="#212C3B" d="M84.13,323.95c-0.05,0.05-0.1,0.09-0.16,0.13c0.02-0.01,0.04-0.021,0.05-0.03
		c0.03-0.01,0.05-0.04,0.08-0.06c0.01,0,0.02-0.01,0.03-0.03c0.06-0.06,0.12-0.11,0.18-0.17v-0.01
		C84.25,323.84,84.19,323.89,84.13,323.95z"/>
	<path fill="#212C3B" d="M84.13,323.95c-0.05,0.05-0.1,0.09-0.16,0.13c0.02-0.01,0.04-0.021,0.05-0.03
		c0.03-0.01,0.05-0.04,0.08-0.06c0.01,0,0.02-0.01,0.03-0.03c0.06-0.06,0.12-0.11,0.18-0.17v-0.01
		C84.25,323.84,84.19,323.89,84.13,323.95z"/>
	<path fill="#212C3B" d="M83.08,324.61c-0.02,0.02-0.05,0.026-0.07,0.04c0.08-0.021,0.15-0.054,0.21-0.094
		c0.03-0.01,0.05-0.02,0.07-0.04C83.22,324.55,83.15,324.58,83.08,324.61z"/>
	<path fill="#212C3B" d="M82.88,324.7c0.01,0,0.01,0,0.02,0c0.03-0.01,0.06-0.021,0.08-0.04C82.95,324.67,82.92,324.69,82.88,324.7z
		"/>
	<path fill="#FFFFFF" d="M81.44,230.8c2.02-0.319,4.04-0.649,6.06-0.979c-2.02,0.343-4.04,0.66-6.06,0.99
		c-0.7,0.109-1.33,0.25-1.9,0.439C80.11,231.061,80.74,230.91,81.44,230.8z"/>
	<path fill="#FFFFFF" d="M90.39,55.15c0.29-0.88,0.62-1.73,0.99-2.57C91.01,53.42,90.69,54.28,90.39,55.15z"/>
	<path fill="#FFFFFF" d="M111.71,174.8c-0.93-2.66-1.68-5.38-2.24-8.14C110.04,169.42,110.79,172.14,111.71,174.8z"/>
	<path fill="#FFFFFF" d="M110.6,136.68c-2.85,10.07-3.11,20.29-1.13,29.98c-1.98-9.68-1.73-19.91,1.12-29.98
		c0.18-0.64,0.35-1.27,0.52-1.91C110.95,135.41,110.78,136.04,110.6,136.68z"/>
	<path fill="#FFFFFF" d="M111.99,130.97c-0.26,1.26-0.55,2.53-0.88,3.8C111.43,133.5,111.73,132.24,111.99,130.97z"/>
	<path fill="#FFFFFF" d="M113.46,101.97c0.16,0.313,0.28,0.64,0.39,0.98C113.75,102.6,113.62,102.28,113.46,101.97z"/>
	<path fill="#FFFFFF" d="M119.24,189.91c0.79,1.17,1.62,2.32,2.48,3.449C120.85,192.24,120.03,191.08,119.24,189.91z"/>
	<path fill="#FFFFFF" d="M121.73,193.37c0.87,1.12,1.77,2.229,2.71,3.3C123.5,195.6,122.59,194.5,121.73,193.37z"/>
	<path fill="#FFFFFF" d="M214.38,17.75c-7.42,2.15-14.688,4.54-20.55,9.98c-0.689,0.64-2.471,0.73-3.46,0.34
		c-16.81-6.6-31.1-3.03-43.04,10.42c-0.2,0.22-0.56,0.28-1.11,0.55c-8.99-6.83-19.19-9.37-30.4-6.82
		c-6.54,1.49-12.29,4.72-16.8,9.16c4.51-4.44,10.26-7.68,16.8-9.18c11.21-2.55,21.41-0.01,30.4,6.81c0.55-0.27,0.91-0.37,1.11-0.58
		c11.94-13.45,26.22-17.09,43.05-10.48c0.979,0.38,2.761,0.17,3.45-0.47c5.529-5.12,12.311-7.01,19.29-9.73H214.38z"/>
	<path fill="#FFFFFF" d="M214.5,205.96c1.2-0.92,2.359-1.86,3.48-2.84C216.859,204.1,215.7,205.05,214.5,205.96z"/>
	<path fill="#FFFFFF" d="M217.99,203.12c1.119-0.99,2.199-2,3.24-3.03C220.189,201.13,219.109,202.141,217.99,203.12z"/>
	<path fill="#FFFFFF" d="M222.77,198.5c1.014-1.07,1.974-2.17,2.9-3.29C224.75,196.34,223.779,197.439,222.77,198.5z"/>
	<path fill="#FFFFFF" d="M228.33,191.75c0.84-1.17,1.641-2.37,2.41-3.59C229.98,189.37,229.18,190.57,228.33,191.75z"/>
	<path fill="#FFFFFF" d="M230.74,188.15c0.76-1.221,1.479-2.461,2.16-3.73C232.23,185.68,231.51,186.93,230.74,188.15z"/>
	<path fill="#FFFFFF" d="M237.18,174.57c0.461-1.36,0.87-2.73,1.25-4.11C238.061,171.85,237.641,173.22,237.18,174.57z"/>
	<path fill="#FFFFFF" d="M239.41,166.27c0.279-1.41,0.51-2.83,0.699-4.26C239.93,163.44,239.689,164.86,239.41,166.27z"/>
	<path fill="#FFFFFF" d="M251.65,75.95c0.43-0.67,0.83-1.35,1.209-2.04C252.49,74.6,252.08,75.28,251.65,75.95z"/>
	<path fill="#FFFFFF" d="M256.93,51.44c-0.05-0.47-0.109-0.95-0.17-1.43c-2.02-15.46-13.029-26.93-29.39-31.26
		c-0.761-0.2-1.45-0.66-2.16-1h0.431c0.563,0.53,1.119,0.6,1.729,0.75c16.36,4.33,27.37,16.05,29.399,31.52
		C256.83,50.5,256.891,50.97,256.93,51.44z"/>
	<path fill="#FFFFFF" d="M302.87,325.14c-11.95,0-23.22,0.224-34.74-0.01c-0.021,0-0.04,0.12-0.06,0.12H303v-0.11H302.87z"/>
	<path fill="#FFFFFF" d="M267.91,324.97l0.01,0.014h0.051C267.95,324.98,267.93,324.98,267.91,324.97z"/>
	<path fill="#FFFFFF" d="M267.5,324.81c0.061,0.04,0.13,0.08,0.2,0.104c0.069,0.03,0.14,0.05,0.2,0.06
		C267.77,324.93,267.63,324.88,267.5,324.81z"/>
	<path fill="#FFFFFF" d="M265.12,321.88c-1.149-3.02-2.25-6.05-3.42-9.09c1.149,3.04,2.26,6.09,3.409,9.12
		c0.181,0.47,0.5,1.02,0.891,1.52c0.109,0.15,0.23,0.304,0.359,0.434C265.83,323.24,265.359,322.5,265.12,321.88z"/>
	<path fill="#FFFFFF" d="M261.109,311.73c0.188,0.51,0.391,1.02,0.58,1.52h0.011C261.5,312.75,261.311,312.24,261.109,311.73z"/>
	<path fill="#FFFFFF" d="M81.97,324.95c0.01,0.01,0.03,0.01,0.04,0c-0.02,0.01-0.04,0.01-0.06,0.01
		C81.96,324.96,81.96,324.96,81.97,324.95z"/>
	<path fill="#FFFFFF" d="M82.48,324.83c0.11-0.03,0.22-0.063,0.32-0.1c-0.11,0.05-0.22,0.076-0.33,0.106L82.48,324.83z"/>
	<path fill="#FFFFFF" d="M82.88,324.7c0.04-0.01,0.07-0.03,0.1-0.04c-0.02,0.02-0.05,0.03-0.08,0.04c-0.03,0.01-0.06,0.03-0.1,0.03
		C82.83,324.72,82.85,324.71,82.88,324.7z"/>
	<path fill="#FFFFFF" d="M83.08,324.61c0.05-0.014,0.1-0.03,0.14-0.054c-0.06,0.04-0.13,0.07-0.21,0.094
		C83.03,324.64,83.06,324.63,83.08,324.61z"/>
	<path fill="#FFFFFF" d="M84.1,323.99c-0.174,0.159-0.369,0.285-0.574,0.396c0.083-0.047,0.16-0.094,0.234-0.146
		c0.06-0.04,0.12-0.09,0.18-0.13S84.05,324.02,84.1,323.99z"/>
	<path fill="#FFFFFF" d="M83.29,324.52c0.083-0.036,0.158-0.086,0.236-0.13c-0.006,0.004-0.01,0.011-0.016,0.014
		C83.44,324.45,83.37,324.49,83.29,324.52z"/>
	<path fill="#FFFFFF" d="M85.08,322.76c0.26-0.42,0.5-0.91,0.75-1.479c-0.48,1.13-0.94,1.93-1.52,2.51v-0.01
		c0.22-0.224,0.41-0.46,0.59-0.73C84.97,322.96,85.03,322.86,85.08,322.76z"/>
	<path fill="#FFFFFF" d="M86.2,320.37c0-0.021,0.01-0.03,0.02-0.04c-0.06,0.15-0.11,0.29-0.17,0.43c-0.05,0.144-0.11,0.271-0.17,0.4
		C85.98,320.91,86.09,320.65,86.2,320.37z"/>
	<path fill="#FFFFFF" d="M91.57,305.311c-1.41,3.949-2.81,7.933-4.21,11.883c-0.09,0.25-0.17,0.486-0.26,0.729
		c-0.05,0.141-0.1,0.28-0.15,0.41c0.12-0.37,0.26-0.76,0.41-1.18C88.76,313.21,90.16,309.21,91.57,305.311z"/>
	<path fill="#FFFFFF" d="M95.29,308.82c-0.11-0.934-0.22-1.86-0.33-2.78c0-0.04-0.01-0.08-0.01-0.12
		c-0.22-1.85-0.44-3.699-0.65-5.55v-0.011l0.01,0.011h0.01c0.12,1.01,0.24,2.04,0.37,3.05C94.9,305.21,95.1,307.01,95.29,308.82z"/>
	<path fill="#FFFFFF" d="M97.23,325.25h-0.07c-0.14-1-0.29-2.5-0.43-3.75C96.89,322.77,97.06,324.25,97.23,325.25z"/>
	<path fill="#FFFFFF" d="M150.27,229.37c-0.98-0.04-1.98-0.149-2.99-0.271c0.5,0.051,1,0.101,1.5,0.147
		c0.25,0.021,0.51,0.04,0.75,0.062C149.78,229.33,150.03,229.35,150.27,229.37z"/>
	<path fill="#FFFFFF" d="M194.38,128c-6.5-0.02-13.01-0.06-19.52-0.06c-4.29,0-8.58,0.01-12.88,0.02c4.3-0.01,8.59-0.03,12.88-0.03
		C181.37,127.93,187.88,127.97,194.38,128z"/>
	<path fill="#212C3B" d="M189.79,289.68c0.01,5.771-4.521,10.36-10.2,10.37c-5.64,0-10.33-4.67-10.35-10.31
		c-0.021-5.74,4.5-10.26,10.279-10.271C185.37,279.46,189.79,283.85,189.79,289.68z"/>
	<path fill="#212C3B" d="M188.84,247.529c-0.04,5.701-4.699,10.279-10.359,10.211c-5.647-0.07-10.25-4.811-10.188-10.461
		c0.06-5.75,4.62-10.18,10.42-10.109C184.54,237.23,188.891,241.68,188.84,247.529z"/>
	<path fill="#212C3B" d="M218.49,188.02c-2,5.301-6.57,7.021-11.61,7.78c-10.37,1.57-18.45-3.08-25.7-9.75
		c-2.039-1.87-3.81-4.01-4.93-5.2c-7.23,4.9-13.44,10.03-20.45,13.563c-6.35,3.188-13.61,2.76-19.7-1.439
		c-2.13-1.471-3.84-4.511-4.37-7.101c-0.77-3.86,1.79-6.57,5.51-7.54c3.75-0.971,6.13,0.938,7.84,5.068
		c-1.19-0.561-1.71-1.01-2.24-1.021c-1.63-0.06-3.26,0.05-4.88,0.101c0.12,1.381-0.28,3.392,0.46,3.979
		c1.3,1.06,3.67,2.14,4.92,1.62c2.29-0.971,4.33-2.9,6.04-4.811c2.18-2.432,3.88-5.271,5.89-7.859c4.8-6.18,10.45-7.67,17.86-5.07
		c1.34,0.47,3.13,0.41,4.479-0.07c6.979-2.46,11.66-1.37,16.688,4.34c3.66,4.16,7,8.621,10.92,12.5
		c1.11,1.102,4.142,1.352,5.61,0.621c1.12-0.541,1.188-3.25,1.729-4.989c-1.561-0.15-3.131-0.421-4.688-0.392
		c-0.642,0-1.271,0.631-2.67,1.392c1.72-5,4.608-6.36,8.608-5.261C217.58,179.52,219.891,184.311,218.49,188.02z"/>
</g>
</svg>
