<?xml version="1.0" encoding="utf-8"?>
<!-- Generator: Adobe Illustrator 16.0.0, SVG Export Plug-In . SVG Version: 6.00 Build 0)  -->
<!DOCTYPE svg PUBLIC "-//W3C//DTD SVG 1.1//EN" "http://www.w3.org/Graphics/SVG/1.1/DTD/svg11.dtd">
<svg version="1.1" id="Layer_1" xmlns="http://www.w3.org/2000/svg" xmlns:xlink="http://www.w3.org/1999/xlink" x="0px" y="0px"
	 width="350px" height="350px" viewBox="0 0 350 350" enable-background="new 0 0 350 350" xml:space="preserve">
<g>
	<path fill="#212C3B" d="M253.688,89.517c-17.134-28.274-45.704-48.689-80.185-53.485c-62.318-8.64-114.379,37.969-129.142,101.746
		c-18.651,80.674,2.42,108.936,41.521,110.102c7.177-6.503,16.079-11.616,25.876-14.638L253.688,89.517z"/>
	<path fill="#0071BC" d="M138.631,84.219c2.119-15.259,16.211-25.919,31.479-23.8c15.26,2.124,25.914,16.228,23.805,31.479
		c-2.128,15.259-16.221,25.923-31.483,23.8C147.164,113.57,136.517,99.495,138.631,84.219z"/>
	<path fill="#009245" d="M81.011,114.467c1.563-11.299,12.016-19.214,23.315-17.614c11.324,1.544,19.223,11.981,17.647,23.307
		c-1.57,11.308-12.023,19.223-23.332,17.635C87.334,136.237,79.437,125.8,81.011,114.467z"/>
	<path fill="#ED1C24" d="M86.849,207.264c-11.312-1.562-19.209-11.994-17.64-23.328c1.575-11.291,12.028-19.213,23.337-17.614
		c11.304,1.553,19.214,11.991,17.631,23.303C108.603,200.949,98.157,208.852,86.849,207.264z"/>
	<path fill="#212C3B" d="M204.775,222.261l2.85-3.604L312.519,81.933c-0.23-2.239-1.424-5.384-5.361-8.94
		c-7.772-7.014-12.887-3.578-12.887-3.578L172.345,187.256l-3.123,3.003L204.775,222.261z"/>
	<polygon fill="#212C3B" points="162.663,269.02 165.666,265.666 198.462,229.143 162.696,197.311 130.129,233.621 127.112,237.001 
			"/>
	<path fill="#FFFFFF" d="M143.113,231.672l16.307-18.48c1.51-1.707,4.109-1.896,5.826-0.367l2.098,1.853
		c0.819,0.722,1.317,1.716,1.39,2.813c0.061,1.115-0.3,2.181-1.028,3.004l-16.307,18.48c-1.51,1.697-4.109,1.887-5.825,0.352
		l-2.09-1.836c-0.827-0.729-1.316-1.725-1.397-2.822C142.024,233.568,142.394,232.488,143.113,231.672z"/>
	<path fill="#212C3B" d="M153.075,278.68L153.075,278.68c0-0.017,1.854-2.951,2.145-3.525l-33.315-30.141
		c-0.755,0.139-1.467,0.309-2.222,0.473c-0.073,0.018-0.125,0.043-0.202,0.061c-26.927,6.35-53.399,35.245-26.76,67.65
		c1.228,1.484,3.213,2.136,5.083,1.639c1.875-0.48,3.295-2.008,3.646-3.87c0.771-4.272,2.312-8.948,5.894-12.327
		C115.535,290.88,138.485,303.391,153.075,278.68z"/>
	<path fill="#FFFFFF" d="M120.523,286.814c-6.7,0.258-13.625,0.515-18.904,5.524c-1.018,0.961-1.939,2.009-2.759,3.071
		c-0.931,1.229-2.467,1.818-3.98,1.563c-1.51-0.25-2.758-1.33-3.222-2.798c-1.507-4.616-1.862-9.592-0.416-14.696
		c0.836-2.994,2.218-5.773,3.972-8.297c6.791,7.396,12.715,11.608,23.667,10.621c6.854-0.601,13.152-0.343,18.986,1.219
		C132.493,286.352,126.606,286.574,120.523,286.814z"/>
</g>
</svg>
