<?xml version="1.0" encoding="utf-8"?>
<!-- Generator: Adobe Illustrator 16.0.0, SVG Export Plug-In . SVG Version: 6.00 Build 0)  -->
<!DOCTYPE svg PUBLIC "-//W3C//DTD SVG 1.1//EN" "http://www.w3.org/Graphics/SVG/1.1/DTD/svg11.dtd">
<svg version="1.1" id="Layer_1" xmlns="http://www.w3.org/2000/svg" xmlns:xlink="http://www.w3.org/1999/xlink" x="0px" y="0px"
	 width="100px" height="100px" viewBox="0 0 100 100" enable-background="new 0 0 100 100" xml:space="preserve">
<g>
	<path fill="#FFFFFF" d="M85.35,14.65C75.59,4.88,63.8,0,50,0S24.41,4.88,14.65,14.65C4.88,24.41,0,36.2,0,50
		s4.88,25.59,14.65,35.35C24.41,95.12,36.2,100,50,100s25.59-4.88,35.35-14.65C95.12,75.59,100,63.8,100,50S95.12,24.41,85.35,14.65
		z M74.22,51.96c-1.43,2.73-3.97,5.01-7.62,6.83c-2.47,1.17-5.729,1.89-9.77,2.15c1.83,0.909,3.16,1.85,4.01,2.829
		c0.851,0.98,1.4,2.511,1.66,4.591v6.149c0,0,0.06,1.99,0.19,5.96c0.39,0.65,0.85,1.2,1.369,1.66c0.521,0.46,0.98,0.78,1.37,0.98
		c0.391,0.189,0.521,0.479,0.391,0.88c-0.13,0.39-0.65,0.58-1.57,0.58c-2.21,0-3.97-0.78-5.27-2.34
		C58.59,81.58,58.4,80.8,58.4,79.88v-9.37c0-1.04-0.261-1.79-0.78-2.25c-0.521-0.45-1.05-0.74-1.57-0.88V79.69
		c0,2.22,0.26,3.649,0.78,4.3c0.53,0.649,0.85,1.3,0.979,1.95c0.131,0.13,0.03,0.229-0.29,0.29c-0.329,0.069-0.88-0.03-1.659-0.29
		C54.17,85.55,53,84.67,52.34,83.3c-0.649-1.359-0.97-2.83-0.97-4.39V66.8h-2.54v12.11c0,1.56-0.33,3.06-0.98,4.49
		c-0.91,1.819-2.6,2.8-5.08,2.93c-0.39-0.13-0.58-0.26-0.58-0.39c0.12-0.131,0.52-0.78,1.17-1.96c0.13-0.261,0.29-0.78,0.49-1.561
		c0.19-0.78,0.29-1.689,0.29-2.729V67.38c-0.52,0.13-1.01,0.43-1.47,0.88c-0.45,0.46-0.68,1.21-0.68,2.25v9.37
		c0,0.91-0.2,1.7-0.59,2.351c-1.17,1.56-2.93,2.34-5.27,2.34c-0.91,0-1.43-0.19-1.56-0.59c-0.13-0.261-0.1-0.48,0.1-0.681
		c0.19-0.189,0.48-0.42,0.87-0.68c0.4-0.26,0.65-0.46,0.79-0.59c0.52-0.391,0.91-0.91,1.17-1.561c0.39-0.52,0.48-1.89,0.29-4.1
		c-0.19-2.22-0.23-3.65-0.1-4.3c-3.38,1.17-6.83,0.59-10.35-1.761c-1.04-1.04-2.08-2.54-3.13-4.489c-0.77-1.431-2.33-3.12-4.68-5.08
		c-0.26-0.26-0.26-0.521,0-0.78c0.52-0.52,1.17-0.71,1.95-0.58c0.79,0.12,1.24,0.25,1.37,0.39c0.91,0.391,1.92,1.271,3.03,2.631
		c1.1,1.369,1.98,2.319,2.64,2.83c3.12,2.609,6.31,2.81,9.56,0.59c0.27-0.91,0.69-1.69,1.27-2.34c0.59-0.65,1.14-1.11,1.67-1.37
		c0.52-0.261,1.43-0.65,2.73-1.17c-4.3-0.391-7.78-1.141-10.45-2.25c-2.67-1.101-4.78-2.5-6.35-4.2c-2.08-2.34-3.35-5.4-3.81-9.18
		c-0.45-3.77-0.16-7.22,0.88-10.35c0.78-1.95,1.89-3.71,3.32-5.27c-1.04-3.26-0.84-6.97,0.59-11.13c4.17,0.26,7.94,1.69,11.33,4.29
		c6.51-1.69,13.28-1.76,20.311-0.19c0.91-0.65,2.31-1.47,4.199-2.44c1.891-0.98,4.261-1.53,7.131-1.66
		c0.52,1.43,0.88,3.12,1.069,5.07c0.2,1.96,0.101,3.78-0.29,5.47c2.99,3.13,4.551,7.3,4.69,12.5
		C76.37,45.77,75.65,49.22,74.22,51.96z"/>
</g>
</svg>
