<?xml version="1.0" encoding="utf-8"?>
<!-- Generator: Adobe Illustrator 16.0.0, SVG Export Plug-In . SVG Version: 6.00 Build 0)  -->
<!DOCTYPE svg PUBLIC "-//W3C//DTD SVG 1.1//EN" "http://www.w3.org/Graphics/SVG/1.1/DTD/svg11.dtd">
<svg version="1.1" id="Layer_1" xmlns="http://www.w3.org/2000/svg" xmlns:xlink="http://www.w3.org/1999/xlink" x="0px" y="0px"
	 width="350px" height="350px" viewBox="0 0 350 350" enable-background="new 0 0 350 350" xml:space="preserve">
<g>
	<path d="M44.333,123.521c0.118-0.12,0.276-0.201,0.396-0.317l-0.237,0.471L44.333,123.521z"/>
	<path d="M222.922,261.708c20.499-14.84,42.067-27.147,59.398-43.849c18.719-18.123,23.861-43.49,21.884-69.37
		c-1.979-25.208-8.231-49.069-26.236-68.224c9.538,50.496,9.538,50.496,0.949,62.129C261.743,67.246,213.466,26.25,151.891,36.578
		c28.453,8.152,53.343,18.797,67.074,45.707c-29.758-20.341-61.296-31.934-96.952-22.912c-35.495,8.942-62.127,29.797-77.284,63.83
		c24.178-19.508,47.962-39.81,82.31-34.864c-20.498,14.84-42.065,27.148-59.359,43.887c-18.756,18.084-23.94,43.489-21.883,69.331
		c1.979,25.127,8.152,48.989,26.157,68.065c-9.576-50.34-9.538-50.377-1.227-62.408c19.548,77.091,63.871,114.881,128.214,106.688
		c-28.887-8.822-54.373-18.836-67.826-46.775c29.322,21.965,61.258,32.291,96.715,23.588c35.536-8.748,62.128-29.881,77.441-63.834
		C281.095,246.271,257.311,266.73,222.922,261.708z M175.08,243.979c-37.635,0-68.145-30.511-68.145-68.144
		c0-37.634,30.51-68.145,68.145-68.145c37.632,0,68.145,30.51,68.145,68.145C243.225,213.468,212.712,243.979,175.08,243.979z"/>
	<path d="M305.667,226.563c-0.116,0.119-0.274,0.201-0.396,0.316l0.239-0.471L305.667,226.563z"/>
</g>
</svg>
