<?xml version="1.0" encoding="utf-8"?>
<!-- Generator: Adobe Illustrator 16.0.0, SVG Export Plug-In . SVG Version: 6.00 Build 0)  -->
<!DOCTYPE svg PUBLIC "-//W3C//DTD SVG 1.1//EN" "http://www.w3.org/Graphics/SVG/1.1/DTD/svg11.dtd">
<svg version="1.1" id="Layer_1" xmlns="http://www.w3.org/2000/svg" xmlns:xlink="http://www.w3.org/1999/xlink" x="0px" y="0px"
	 width="20px" height="18px" viewBox="0 0 20 18" enable-background="new 0 0 20 18" xml:space="preserve">
<g>
	<path d="M8.308,9.131c0-0.504,0.412-0.913,0.922-0.913h1.539c0.511,0,0.924,0.409,0.924,0.913v0.651L20,7.086V5.783
		c0-1.674-1.385-3.043-3.075-3.043h-2.773c0.017-0.394-0.049-0.819-0.28-1.218C13.254,0.456,11.872,0,10.023,0
		C8.178,0,6.795,0.456,6.177,1.522C5.943,1.921,5.879,2.347,5.892,2.74H3.077C1.384,2.74,0,4.109,0,5.784v1.303l8.308,2.696V9.131z
		 M7.244,3.082C7.7,2.292,9.18,2.173,10.023,2.173c0.84,0,2.32,0.119,2.777,0.909c0.106,0.185,0.128,0.401,0.112,0.613H7.127
		C7.113,3.485,7.138,3.27,7.244,3.082z"/>
	<path d="M9.23,9.327c-0.169,0-0.307,0.137-0.307,0.304v1.826c0,0.167,0.138,0.304,0.307,0.304h1.54
		c0.168,0,0.306-0.137,0.306-0.304V9.631c0-0.167-0.138-0.304-0.306-0.304H9.23z"/>
	<path d="M11.693,11.913c0,0.505-0.413,0.914-0.923,0.914H9.23c-0.511,0-0.922-0.409-0.922-0.914v-0.535L0,8.682v6.275
		C0,16.631,1.384,18,3.077,18h13.845c1.691,0,3.076-1.369,3.076-3.044V8.682l-8.307,2.696L11.693,11.913L11.693,11.913z"/>
</g>
</svg>
