<?xml version="1.0" encoding="utf-8"?>
<!-- Generator: Adobe Illustrator 16.0.0, SVG Export Plug-In . SVG Version: 6.00 Build 0)  -->
<!DOCTYPE svg PUBLIC "-//W3C//DTD SVG 1.1//EN" "http://www.w3.org/Graphics/SVG/1.1/DTD/svg11.dtd">
<svg version="1.1" id="Layer_1" xmlns="http://www.w3.org/2000/svg" xmlns:xlink="http://www.w3.org/1999/xlink" x="0px" y="0px"
	 width="350px" height="350px" viewBox="0 0 350 350" enable-background="new 0 0 350 350" xml:space="preserve">
<polygon fill="#FFE5BD" points="266.348,76.292 271.007,75.861 284.947,70.422 301.481,74.556 301.481,79.185 272.713,88.774 
	261.635,86.957 "/>
<path fill="#FFE5BD" d="M205.169,303.615l-2.353,22.871c0,0,1.29,2.22,4.131,4.165c2.674,1.833,6.089,0.685,6.089,0.685l8.386-4.299
	l-2.517-20.849L205.169,303.615z"/>
<polygon fill="#FFE5BD" points="71.689,213.115 82.953,213.606 90.435,211.979 92.788,198.336 77.876,198.336 71.479,205.078 
	68.544,210.393 "/>
<polygon fill="#FFE5BD" points="133.938,40.282 143.078,25.165 161.008,19.684 166.563,19.382 159.672,31.001 146.453,42.392 
	142.195,43.957 134.57,47.243 "/>
<g>
	<path fill="#FFFFFF" d="M120.359,95.872c-0.023,0.048-0.048,0.086-0.061,0.133l-0.037-0.036
		C120.286,95.944,120.322,95.907,120.359,95.872z"/>
	<path d="M164.486,19.382c-0.253,0.193-0.507,0.387-0.749,0.592c-0.036,0-0.06,0.012-0.096,0.012l0.061-0.061
		C163.968,19.746,164.221,19.564,164.486,19.382z"/>
	<path d="M156.689,31.791l-0.194,0.241c-0.023,0-0.047,0.012-0.072,0.012c0.013-0.012,0.036-0.023,0.049-0.036L156.689,31.791z"/>
	<path d="M120.359,95.872c-0.023,0.048-0.048,0.086-0.061,0.133l-0.037-0.036C120.286,95.944,120.322,95.907,120.359,95.872z"/>
	<path d="M200.009,163.5c-0.022,0.023-0.048,0.06-0.061,0.084c-0.409,0.41-0.809,0.821-1.207,1.218l-0.023-0.023
		c0.399-0.398,0.809-0.796,1.219-1.208L200.009,163.5z"/>
	<path fill="#FFFFFF" d="M250.462,167.531c0.097,0.82-0.809,2.196-1.617,2.644c-10.669,5.854-16.368,15.087-18.383,26.795
		c-0.555,3.259-2.076,4.537-5.382,5.249c-11.009,2.355-20.593,7.739-29.006,15.197c-0.747,0.665-1.569,1.243-2.294,1.943
		c-2.521,2.452-4.863,2.501-7.917,0.483c-9.163-6.07-16.862-13.566-23.187-22.522c-2.016-2.861-1.858-3.271,1.689-3.163
		c8.691,0.279,16.585-2.414,24.357-5.864c10.487-4.647,20.641-9.888,29.415-17.407c1.158-0.978,1.954-2.377,2.92-3.573
		c-1.399,0.411-2.932,0.58-4.175,1.279c-6.288,3.538-12.492,7.255-18.77,10.815c-1.557,0.881-3.295,1.46-4.962,2.148
		c-2.401,1.002-3.692,1.147-3.102-2.391c0.989-5.938,1.327-11.998-0.918-17.815c-0.603-1.533-0.965-3.875-3.67-2.535l-0.059-0.048
		c3.393-7.917,0.531-14.906-3.417-21.642c-1.473-2.547-2.775-2.366-4.103,0.495c-1.932,4.116-3.754,8.28-5.529,12.468
		c-0.82,1.944-1.955,2.208-3.741,1.256c-1.581-0.857-3.295-1.473-4.937-2.221c-1.329-0.615-2.644-1.292-3.958-1.932
		c1.399-0.061,2.8-0.061,4.176-0.206c0.398-0.048,0.748-0.543,1.123-0.833c-0.313-0.217-0.59-0.603-0.929-0.651
		c-3.753-0.531-7.507-1.292-11.285-1.412c-3.295-0.109-5.25-0.978-5.818-4.55c-0.205-1.34-1.665-2.475-2.558-3.706l0.265-8.449
		c-0.206-4.466-2.667-6.988-7.169-7.35c-4.563-0.363-9.149-0.47-13.711-0.688c-0.592-0.036-1.376,0.133-1.738-0.181
		c-0.713-0.604-1.196-1.485-1.787-2.246c0.737-0.47,1.424-1.267,2.197-1.352c4.188-0.458,8.388-0.905,12.588-1.051
		c14.268-0.47,28.51-0.362,42.608,2.282c1.762,0.325,3.514,0.857,5.154,1.557c2.378,1.002,5.118,4.454,5.854-1.521
		c0.061-0.531,3.354-1.364,4.684-0.857c1.267,0.495,2.499,2.486,2.703,3.971c0.664,4.719,0.689,9.536,1.243,14.278
		c0.302,2.547,0.688,5.287,1.895,7.484c2.524,4.623,1.364,9.415,1.401,14.158c0,0.905-0.604,1.931-1.195,2.692
		c-0.677,0.881-1.654,1.533-2.498,2.282c-0.193-0.953-0.398-1.907-0.556-2.872c-1.376-8.497-2.74-17.008-4.128-25.516
		c-0.194-1.184-0.411-2.402-0.869-3.5c-0.266-0.628-1.025-1.063-1.557-1.582c-0.302,0.639-0.917,1.327-0.857,1.919
		c0.23,1.993,0.857,3.936,1.038,5.915c0.857,9.186,1.629,18.372,2.413,27.556c0.121,1.401-0.046,2.861,0.267,4.213
		c0.301,1.292,1.05,2.474,1.604,3.718c0.496-0.978,0.869-2.052,1.545-2.909c0.845-1.085,1.933-1.991,2.921-2.981
		c0.604,0.47,1.642,1.401,1.738,1.316c7.797-7.266,18.081-10.332,26.854-15.933c3.331-2.124,6.398-4.864,9.102-7.785
		c2.426-2.631,4.623-2.475,6.506-0.132c1.956,2.426,3.959,5.178,4.708,8.111C249.087,155.969,249.714,161.774,250.462,167.531z"/>
	<path fill="#FFFFFF" d="M207.988,220.169c-0.665,0.109-1.267,0.677-1.896,1.038c0.481,0.556,0.881,1.498,1.447,1.606
		c2.934,0.555,5.903,1.073,8.885,1.28c5.686,0.373,7.014,1.35,6.179,6.891c-0.639,4.31-2.606,8.389-3.621,12.662
		c-0.819,3.44-1.412,6.987-1.509,10.501c-0.047,1.943,0.615,1.956,3.188,0.916c0.362-0.145,1.353,0.255,1.437,0.568
		c0.712,2.704,1.279,5.442,1.847,7.966c-1.339,8.63-2.8,16.923-3.887,25.275c-0.53,4.142-0.676,8.377-0.447,12.541
		c0.146,2.716-0.76,3.669-2.92,2.498c-4.199-2.279-8.279-4.841-12.19-7.593c-1.942-1.352-3.463-3.343-5.093-5.116
		c-1.749-1.906-3.077-3.501,0.183-5.688c3.028-2.039,2.063-5.346-0.17-7.302c-5.998-5.273-3.415-10.825-1.135-16.475
		c0.737-1.824,1.726-2.752,3.428-0.727c0.41,0.484,1.327,0.544,2.016,0.798c0.132-0.737,0.435-1.497,0.375-2.223
		c-0.34-4.959-1.605-9.654-5.722-12.806c-5.709-4.357-5.806-11.199-8.027-17.091c-0.229-0.639,0.362-1.883,0.954-2.475
		c2.076-2.123,4.357-4.068,6.494-6.144c5.685-5.503,12.673-8.438,20.266-9.862c1.617-0.29,3.646,0.82,5.275,1.692
		c1.556,0.83,2.836,2.183,4.248,3.293c1.037,0.809,2.1,1.595,3.15,2.391c-1.376,0.314-2.729,0.833-4.103,0.905
		c-5.01,0.242-10.02,0.339-15.04,0.496C210.39,220.036,209.171,219.964,207.988,220.169z"/>
	<path fill="#FFFFFF" d="M163.739,19.974c-0.036,0-0.06,0.012-0.096,0.012l0.061-0.061L163.739,19.974z"/>
	<path fill="#FFFFFF" d="M156.496,32.033c-0.023,0-0.047,0.012-0.072,0.012c0.013-0.012,0.036-0.023,0.049-0.036L156.496,32.033z"/>
	<path fill="#FFFFFF" d="M200.009,163.5c-0.022,0.023-0.048,0.06-0.061,0.084l-0.011-0.012L200.009,163.5z"/>
	<path fill="#FFFFFF" d="M231.983,142.812c-2.752,2.245-5.939,4.2-9.246,5.505c-8.714,3.44-16.414,8.231-22.729,15.184
		c3.248-4.719,6.483-9.475,9.802-14.146c0.411-0.58,1.314-1.111,2.004-1.147c5.757-0.217,8.812-4.357,12.021-8.196
		c1.799-2.16,3.428-4.467,5.021-6.771c2.438-3.524,2.499-3.561,4.491-0.048C235.592,137.164,235.472,139.951,231.983,142.812z"/>
	<path fill="#FFFFFF" d="M164.313,152.658c0.135,0.033,0.27,0.09,0.405,0.168c-0.135-0.056-0.27-0.124-0.416-0.158
		c-0.518-0.146-1.069-0.135-1.598-0.18h-0.011v-0.011C163.221,152.523,163.783,152.511,164.313,152.658z"/>
	<path fill="#FFFFFF" d="M165.944,153.322c0.81,0.067,1.541,0.203,2.193,0.405c-0.652-0.191-1.384-0.326-2.193-0.394
		c-0.405-0.045-0.799-0.304-1.215-0.506C165.134,153.018,165.527,153.288,165.944,153.322z"/>
	<path fill="#FFFFFF" d="M170.748,155.212c-0.394-0.394-0.866-0.732-1.417-1.013C169.881,154.469,170.354,154.807,170.748,155.212z"
		/>
	<path fill="#FFFFFF" d="M157.727,211.299c0.134-0.086,0.278-0.169,0.436-0.243c0.121-0.071,0.241-0.133,0.362-0.181
		c0.12-0.06,0.242-0.119,0.362-0.167c0.567-0.242,1.146-0.422,1.666-0.496c0.192-0.036,0.375-0.048,0.542-0.048
		c0.338,0,0.627,0.061,0.845,0.194c1.074,0.675,1.81,1.896,2.703,2.884c-1.075,0.265-2.135,0.568-3.211,0.772
		c-0.567,0.11-1.171,0.062-3.029,0.146L157.727,211.299z"/>
	<path fill="#FFFFFF" d="M205.586,150.839c-0.061,0.253-0.592,0.409-0.905,0.615c-0.326-0.604-0.75-1.182-0.967-1.823
		c-0.181-0.531-0.12-1.146-0.168-1.726l0.022-0.036c0.701,0.326,1.606,0.483,2.029,1.014
		C205.924,149.282,205.73,150.2,205.586,150.839z"/>
	<path fill="#FFFFFF" d="M202.387,118.938c-0.386,0.398-0.772,0.785-1.158,1.183c-0.134-0.182-0.266-0.362-0.398-0.555
		c0.507-0.217,1.014-0.446,1.508-0.665L202.387,118.938z"/>
	<path fill="#FFFFFF" d="M164.486,19.382c-0.253,0.193-0.507,0.387-0.749,0.592l-0.036-0.048
		C163.968,19.746,164.221,19.564,164.486,19.382z"/>
	<g>
		<path fill="#212C3B" d="M303.53,73.065c-3.318-1.361-6.569-3.184-10.046-3.848c-3.6-0.675-7.582-0.9-11.104-0.079
			c-3.611,0.844-6.896,3.161-10.26,4.95c-0.541,0.281-0.754,1.17-1.114,1.778c0.731,0.214,1.552,0.788,2.183,0.619
			c2.317-0.63,4.759-1.182,6.795-2.363c4.443-2.531,8.831-2.418,13.297-0.427c1.879,0.832,3.601,2.036,5.401,3.06
			c-2.037,0.708-4.028,1.665-6.132,2.082c-5.704,1.125-11.509,1.743-16.11,6.019c-1.046,0.957-2.937,1.294-4.455,1.361
			c-4.894,0.236-5.625-0.878-4.128-5.692c1.372-4.455,1.102-5.738-3.466-7.346c-3.903-1.384-8.145-2.317-12.273-2.441
			c-6.198-0.18-12.409,0.844-18.63,0.765c-8.617-0.09-17.246-1.103-25.853-0.945c-4.274,0.079-8.819,1.249-12.678,3.082
			c-8.506,4.039-17.156,6.548-26.607,6.435c-5.625-0.067-11.272-0.045-16.863,0.495c-12.24,1.181-22.534,6.604-31.129,15.311
			c1.44-3.217,3.679-6.345,4.084-9.686c0.967-8.201,5.58-14.31,10.102-20.655c2.408-3.397,4.376-7.121,6.604-10.654
			c2.171-3.465,2.576-7.031,0.889-10.811c-0.979-0.169-1.991-0.271-2.947-0.529c-4.354-1.192-4.298-1.158-1.924-4.725
			c1.113-1.654,2.205-3.386,2.925-5.243c2.598-6.57,7.638-10.114,14.231-11.745c3.071-0.754,6.21-1.238,9.314-1.845l0.068-0.056
			c0.18-0.124,0.359-0.248,0.551-0.383c0.011,0,0.022-0.011,0.034-0.011c0-0.012,0.011-0.012,0.011-0.012
			c0.056-0.045,0.124-0.089,0.191-0.135c-0.068,0.045-0.135,0.101-0.203,0.146c-0.191,0.146-0.382,0.292-0.551,0.439
			c-0.034,0-0.056,0.011-0.102,0.011c-3.003,3.049-6.142,5.974-8.955,9.191c-1.935,2.205,1.766,2.869,1.744,2.869
			c-2.317,1.777-4.714,3.476-6.941,5.344c-2.509,2.104-4.871,4.376-7.29,6.57c3.319-0.686,6.784-0.99,9.923-2.149
			c5.951-2.193,8.089-8.032,11.25-12.87c-2.036-3.431,1.338-4.208,2.902-5.884c0.551-0.585,1.147-1.147,1.553-1.823
			c1.26-2.115,0.573-3.825-1.8-3.735c-5.974,0.226-12.083,0.214-17.842,1.542c-4.759,1.091-8.303,4.759-9.968,9.72
			c-3.049,9.056-10.327,13.286-18.652,16.245c-6.604,2.374-13.376,4.309-19.767,7.121c-5.805,2.554-8.381,7.65-8.865,14.018
			c-0.833,11.126-3.454,21.791-9.022,31.612c-3.083,5.412-5.749,11.059-8.876,16.437c-0.787,1.327-2.52,2.273-4.016,2.992
			c-0.765,0.372-1.552,0.698-2.362,1.001c-1.181,0.427-2.396,0.788-3.611,1.092c-2.295,0.563-4.792,1.507-6.975,1.091
			c-4.129-0.787-7.211,0.09-10.204,3.026c-2.52,2.476-2.993,4.028-0.011,5.906c2.486,1.542,5.467,2.396,8.325,3.207
			c2.081,0.574,3.667,0.866,3.611,3.724c-0.067,3.071,1.98,3.274,4.005,1.676c2.655-2.115,5.051-4.567,7.627-6.761
			c0.607-0.506,1.868-1.091,2.295-0.81c3.735,2.408,5.333,8.28,3.679,12.735c-0.417,1.125-0.912,2.228-1.26,3.375
			c-1.541,4.849-0.81,7.458,3.049,10.631c1.406,1.147,2.914,2.182,4.444,3.116c6.154,3.803,10.979,8.628,13.387,15.716
			c1.395,4.151,4.466,7.088,8.527,8.898c1.71,0.777,3.364,1.677,5.04,2.521c-1.991-0.067-3.993-0.034-5.974-0.236
			c-5.613-0.607-8.393,0.45-10.283,5.028c-1.586,3.848-3.622,5.131-7.863,4.096c-5.321-1.294-9.945,0.214-12.747,5.49
			c-0.743,1.406-1.811,2.654-2.677,3.993c-3.578,5.501-2.07,9.112,4.433,9.799c2.711,0.292,5.535-0.371,8.302-0.731
			c0.45-0.067,0.799-0.765,1.182-1.158c-0.439-0.395-0.833-1.035-1.317-1.092c-2.981-0.371-5.985-0.54-8.955-0.922
			c-1.665-0.226-2.88-1.227-1.452-2.824c3.5-3.938,6.255-9.225,13.073-7.717c1.305,0.292,2.801-0.124,4.174-0.372
			c2.239-0.416,2.385,0.642,1.878,2.375c-0.629,2.114-1.552,4.24-1.608,6.389c-0.057,1.856,0.912,4.849,1.451,5.614
			c1.924,2.723,3.488,2.768,4.882,3.42c1.418,0.416,2.622,0.72,3.927,1.103c1.35,0.405,2.677,0.854,4.016,1.294
			c4.421,1.462,8.865,1.553,12.746-1.148c4.151-2.891,8.257-2.475,12.543-0.844c5.434,2.07,11.047,2.025,16.672,1.328
			c3.567-0.461,7.099-1.373,10.665-1.891c6.716-0.979,13.219-1.046,18.596,4.242c1.553,1.519,3.532,3.004,5.557,3.532
			c5.906,1.563,7.651,5.546,8.124,11.093c0.358,4.162,1.406,8.291,5.006,11.25c3.848,3.139,4.421,6.569,1.012,10.529
			c-5.365,6.255-5.142,12.263-0.528,18.574c1.665,2.283,2.149,4.477,0.9,7.244c-1.44,3.184-0.585,6.379,1.36,9.146
			c1.608,2.284,3.59,4.309,5.288,6.548c0.81,1.068,2.194,2.834,1.845,3.441c-2.757,4.939-0.168,10.655-2.633,15.66
			c-1.146,2.329-0.865,5.231,1.608,7.088c0.339,0.248,1.969-0.607,1.969-0.619c-1.766-5.546,5.344-9.754,2.363-15.558
			c-0.281-0.541,1.722-3.173,2.261-3.038c2.779,0.619,6.818,1.103,7.83,3.026c1.89,3.555,2.329,8.044,2.778,12.194
			c0.35,3.354-2.991,4.388-5.063,6.199c-0.607,0.518-0.955,1.653-0.889,2.464c0.034,0.405,1.238,0.944,1.969,1.047
			c6.301,0.922,10.215-4.062,8.292-10.238c-1.08-3.42-1.89-6.941-2.599-10.474c-0.495-2.464-0.113-4.658,2.261-6.356
			c2.588-1.845,2.892-4.758,2.171-7.639c-1.799-7.132-0.91-14.063,1.79-20.688c3.149-7.763,2.542-15.12-2.284-21.701
			c-3.072-4.196-2.318-7.571-0.045-11.531c2.879-5.04,4.521-10.327,1.9-16.099c-1.338-2.936,0.326-3.824,2.847-4.545
			c3.06-0.866,6.165-1.8,8.944-3.308c2.688-1.451,2.43-2.677-0.372-4.005c-3.082-1.474-6.222-2.835-9.225-4.433
			c-1.248-0.663-1.676-2.003,0.09-2.61c4.556-1.597,5.457-5.557,6.367-9.506c2.375-10.125,6.278-18.945,16.673-23.591
			c4.612-2.059,5.422-5.04,4.533-9.36c-1.125-5.49-2.137-11.002-3.149-16.526c-0.945-5.186-3.015-10.046-8.213-11.779
			c-4.106-1.361-6.007-4.309-8.28-7.301c-1.406-1.833-1.821-3.477-0.269-5.411c3.352-4.186,1.878-8.348-0.294-12.375
			c-1.608-3.015-3.757-5.749-5.208-8.82c-1.08-2.272-2.486-3.578-4.917-3.792c-4.185-0.349-8.369-0.607-12.565-0.945
			c-0.686-0.067-1.361-0.348-2.047-0.54c0.607-0.461,1.125-1.136,1.8-1.384c6.524-2.374,13.016-1.789,19.417,0.54
			c3.757,1.384,6.784,3.679,7.639,7.853c0.799,3.916,2.148,2.689,4.141,0.777c5.377-5.142,10.956-10.046,16.346-15.177
			c1.777-1.698,3.374-2.621,5.828-1.451c4.264,2.025,8.403,0.979,12.048-1.384c5.22-3.408,11.025-4.579,16.953-5.793
			c3.207-0.664,6.447-2.272,9.09-4.23C307.209,76.676,306.467,74.268,303.53,73.065z M162.939,152.792
			c-0.078-0.101-0.157-0.202-0.236-0.303c0.529,0.044,1.08,0.034,1.598,0.18c0.146,0.034,0.281,0.102,0.416,0.158h0.012
			c0.191,0.09,0.371,0.191,0.551,0.281c0.079,0.045,0.158,0.067,0.236,0.101c0.045,0.012,0.079,0.034,0.124,0.045
			c0.022,0.012,0.045,0.022,0.067,0.022c0.079,0.034,0.157,0.045,0.236,0.057c0.304,0.022,0.596,0.056,0.877,0.101
			c0.033,0.011,0.067,0.011,0.101,0.022c0.248,0.034,0.484,0.079,0.709,0.135c0.18,0.044,0.348,0.09,0.506,0.135
			c0.427,0.135,0.833,0.292,1.193,0.472c0.27,0.135,0.529,0.281,0.765,0.461c0.236,0.158,0.45,0.349,0.652,0.552
			c1.305,1.327,1.766,3.33,1.451,5.951l-0.033,0.045c-2.824-2.498-5.647-4.984-8.449-7.481c-0.102-0.09-0.191-0.191-0.281-0.292
			c-0.169-0.191-0.326-0.416-0.496-0.63V152.792z M164.369,166.608c-2.295-2.768-4.781-5.355-7.268-7.942
			c-2.362-2.441-4.882-4.736-7.245-7.155c-0.495-0.518-0.664-1.373-0.99-2.059c0.698,0.18,1.53,0.18,2.092,0.585
			c3.915,2.745,7.785,5.614,11.689,8.403c2.61,1.868,5.265,3.668,7.875,5.513c0.63,0.45,1.17,1.001,2.115,1.822
			c-0.979,0.518-1.597,0.979-2.283,1.193C168.34,167.587,166.349,168.981,164.369,166.608z M182.233,110.707
			c2.554-2.531,5.254-4.917,7.763-7.515c3.646-3.792,8.19-3.667,12.848-3.285c0.36,0.023,0.731,0.203,1.451,0.428
			c-0.675,0.427-0.833,0.551-1.001,0.652c-4.062,2.036-3.791,5.659-3.566,9.349c0.078,1.136-0.405,2.295-0.642,3.431
			c-0.968-0.483-2.024-0.877-2.913-1.485c-4.377-3.038-8.742-1.946-13.141-0.146c-0.528,0.214-1.147,0.168-1.732,0.236
			C181.604,111.81,181.795,111.146,182.233,110.707z M120.348,95.891c-0.011,0.045-0.034,0.067-0.045,0.112l-0.045-0.034
			C120.292,95.947,120.314,95.924,120.348,95.891z"/>
		<path fill="#FFE5BD" d="M70.319,125.878c-1.103,1.114-2.599,1.811-3.825,2.813c-1.327,1.069-2.228,3.96-4.14,0.236
			c-0.36-0.675-3.769,0.574-5.67,0.281c-2.329-0.36-4.534-1.395-6.795-2.149c2.037-0.9,3.994-2.047,6.12-2.655
			c4.376-1.238,8.82-2.193,13.77-3.386c0.607,0.45,2.104,1.091,2.092,1.71C71.86,123.797,71.118,125.057,70.319,125.878z"/>
		<path fill="#FFE5BD" d="M205.015,120.895c0.54-0.607,1.068-1.227,1.474-1.902c1.576-2.587,3.015-1.912,4.602,0.034
			c3.251,3.994,3.24,3.848,8.336,1.935c2.217-0.832,4.612-1.304,6.952-1.473c0.912-0.067,2.127,0.967,2.745,1.822
			c0.237,0.338-0.574,1.868-1.26,2.374c-2.7,1.969-3.982,4.343-3.003,7.729c0.18,0.607,0.021,1.552-0.36,2.036
			c-2.476,3.105-5.074,6.143-7.616,9.203c-4.265,5.152-10.496,4.927-13.737-0.911c-1.698-3.061-2.362-6.671-3.498-10.035
			C200.424,128.208,202.27,124.022,205.015,120.895z"/>
		<path fill="#EDE8E2" d="M179.568,143.845c0.19-0.405,0.461-0.788,0.707-1.182c0.203,0.327,0.484,0.63,0.631,0.99
			c0.956,2.408,1.89,4.815,2.846,7.234c-0.281,0.034-0.563,0.067-0.832,0.112c-0.157,2.925,0.191,6.042-0.676,8.752
			c-0.563,1.722-2.936,2.847-4.5,4.23c-0.426-0.495-1.136-0.945-1.237-1.507c-0.438-2.34-0.686-4.736-1.001-7.099
			c-0.056-0.394-0.236-1.08-0.124-1.147C180.04,152.069,177.981,147.231,179.568,143.845z"/>
		<path fill="#FFE5BD" d="M157.124,207.475c-1.282,0.247-3.679-0.226-3.994-1.013c-1.913-4.726-6.131-6.626-9.967-9.057l0.045-0.045
			c4.916-0.405,9.798-0.697,14.399,1.598c1.372,0.697,2.88,1.293,3.982,2.306c1.294,1.204,1.721,2.723-0.36,3.861
			C159.823,205.876,158.586,207.182,157.124,207.475z"/>
		<path fill="#FFE5BD" d="M131.89,150.066c-0.731-1.125-1.451-2.25-1.62-2.509c0.483-3.757,0.922-6.323,1.113-8.91
			c0.124-2.037,0.191-4.05-3.015-3.983c-0.945,0.023-1.901-1.676-2.914-2.531c-0.472-0.416-1.429-1.08-1.575-0.945
			c-2.757,2.385-2.79-1.001-2.723-1.688c0.113-1.316,0.979-3.465,1.845-3.633c4.691-0.923,9.472-1.643,14.242-1.823
			c3.105-0.113,4.77,2.351,4.432,5.299c-0.393,3.341-1.383,6.626-2.272,9.899c-0.483,1.722-2.036,3.42-1.867,4.996
			C138.055,148.828,133.342,147.771,131.89,150.066z"/>
		<path fill="#FFFFFF" d="M92.482,212.569c0.159-0.849,1.608-8.244,2.53-13.34c1.204-6.75,2.115-7.425,9.034-7.74
			c3.172-0.146,6.311-0.832,9.46-1.271c0.552-0.091,1.092-0.26,1.632-0.383c-0.337,0.606-0.563,1.316-1.024,1.8
			c-3.454,3.646-6.986,7.233-10.429,10.89c-0.641,0.675-0.99,1.62-1.474,2.43c1.092-0.247,2.43-0.158,3.218-0.775
			c3.308-2.621,6.401-5.467,9.641-8.189c1.98-1.676,3.915-3.499,6.12-4.827c3.375-2.037,7.11-1.912,10.249,0.349
			c2.487,1.812,7.583,2.363,5.04,7.695c-0.112,0.281,0.822,1.508,1.373,1.586c4.939,0.708,8.201,2.633,10.451,6.243
			c0,0,3.127,2.892,6.412,3.534c2.453,0.202,4.512-0.124,5.434-0.281c0.011-0.012,0.034-0.012,0.045-0.012
			c0.113-0.023,0.191-0.033,0.27-0.058c0.034,0,0.068-0.011,0.09-0.011c0.191-0.033,0.371-0.045,0.54-0.045
			c0.337,0,0.63,0.056,0.844,0.191c1.08,0.676,1.811,1.901,2.7,2.892c-1.069,0.258-2.126,0.563-3.206,0.765
			c-0.563,0.113-1.17,0.225-3.026,0.305l-8.089-0.249c-1.462,0.405-2.869,1.125-4.354,1.194c-7.92,0.305-15.537-1.102-22.973-3.893
			c-2.609-0.968-5.355-1.812-8.111-2.025c-1.699-0.135-3.488,1.012-5.254,1.598c1.44,0.438,2.891,0.89,4.331,1.349
			c0.563,0.18,1.182,0.315,1.676,0.62c0.473,0.293,1.226,1.001,1.136,1.182c-0.304,0.64-0.833,1.483-1.417,1.631
			c-1.743,0.415-3.634,1.25-5.422,1.307c-3.409,0.123-7.91-0.439-9.159-0.597C99.523,216.275,91.755,214.496,92.482,212.569z"/>
		<path fill="#212C3B" d="M205.588,150.842c-0.067,0.248-0.596,0.405-0.911,0.608c-0.326-0.596-0.741-1.181-0.968-1.823
			c-0.18-0.528-0.112-1.136-0.168-1.721l0.034-0.034c0.696,0.326,1.598,0.484,2.024,1.013
			C205.926,149.278,205.735,150.201,205.588,150.842z"/>
		<path fill="#212C3B" d="M201.224,120.118c-0.124-0.179-0.259-0.359-0.394-0.551c0.506-0.225,1.012-0.45,1.507-0.664l0.045,0.034
			C202,119.331,201.617,119.725,201.224,120.118z"/>
		<path fill="#FFFFFF" d="M126.749,156.67c-2.599,1.429-5.13,3.712-7.852,3.96c-3.397,0.314-6.975-0.957-10.44-1.755
			c-4.984-1.147-3.634-5.726-4.309-8.932c-1.396-6.717-0.821-13.467,7.245-16.313c1.238-0.45,2.318-1.564,3.274-2.565
			c0.934-0.967,1.608-2.193,2.407-3.307c0.574,1.609,1.192,3.206,1.688,4.826c0.518,1.699,0.765,3.476,1.451,5.096
			c0.18,0.438,1.654,0.687,2.329,0.461c1.08-0.382,1.969-1.249,2.948-1.912c0.765,1.71,1.597,3.397,2.25,5.153
			c0.168,0.472-0.18,1.158-0.461,2.722c0.337,1.44,0.326,4.095,1.53,5.985C130.957,153.486,129.528,155.163,126.749,156.67z"/>
		<path fill="#FFFFFF" d="M172.198,161.163l-0.033,0.045c-2.824-2.498-5.647-4.984-8.449-7.481c-0.102-0.09-0.191-0.191-0.281-0.292
			c-0.169-0.191-0.326-0.416-0.496-0.63v-0.012c-0.078-0.101-0.157-0.202-0.236-0.303c0.529,0.044,1.08,0.034,1.598,0.18
			c0.146,0.034,0.281,0.102,0.416,0.158c0.012,0.011,0.012,0,0.012,0c0.416,0.203,0.81,0.461,1.215,0.506
			c0.81,0.067,1.541,0.202,2.193,0.394c0.427,0.135,0.833,0.292,1.193,0.472c0.551,0.281,1.024,0.619,1.417,1.013
			C172.052,156.539,172.514,158.542,172.198,161.163z"/>
		<path fill="#FFFFFF" d="M162.939,152.792c-0.089-0.101-0.168-0.202-0.247-0.303h0.011
			C162.783,152.59,162.861,152.691,162.939,152.792z"/>
		<path fill="#FFFFFF" d="M230.743,218.59c-1.383,0.313-2.733,0.832-4.105,0.899c-5.007,0.247-10.024,0.337-15.041,0.495
			c-1.204,0.057-2.431-0.023-3.611,0.179c-0.664,0.114-1.261,0.687-1.89,1.048c0.483,0.549,0.876,1.496,1.45,1.608
			c2.926,0.552,5.895,1.068,8.877,1.271c5.691,0.372,7.02,1.351,6.188,6.896c-0.642,4.309-2.61,8.382-3.624,12.656
			c-0.82,3.444-1.417,6.987-1.507,10.507c-0.056,1.938,0.607,1.958,3.184,0.913c0.36-0.146,1.351,0.259,1.429,0.573
			c0.721,2.701,1.283,5.435,1.856,7.966c-1.338,8.628-2.802,16.92-3.893,25.267c-0.528,4.152-0.675,8.382-0.449,12.545
			c0.146,2.722-0.754,3.667-2.914,2.497c-4.207-2.273-8.28-4.838-12.194-7.594c-1.947-1.351-3.465-3.341-5.098-5.107
			c-1.742-1.912-3.07-3.511,0.191-5.693c3.026-2.037,2.059-5.344-0.18-7.301c-5.996-5.276-3.408-10.822-1.125-16.472
			c0.73-1.821,1.722-2.754,3.42-0.729c0.416,0.483,1.327,0.539,2.025,0.799c0.124-0.742,0.427-1.496,0.371-2.216
			c-0.337-4.961-1.609-9.666-5.726-12.814c-5.704-4.354-5.806-11.195-8.021-17.088c-0.237-0.642,0.36-1.879,0.945-2.476
			c2.08-2.125,4.364-4.072,6.501-6.142c5.683-5.502,12.667-8.438,20.261-9.868c1.622-0.281,3.646,0.821,5.278,1.7
			c1.551,0.831,2.834,2.181,4.252,3.285C228.628,217.003,229.686,217.791,230.743,218.59z"/>
		<path fill="#F2F2F2" d="M236.436,142.405c2.43-2.632,4.625-2.475,6.504-0.135c1.956,2.43,3.959,5.174,4.713,8.111
			c1.438,5.591,2.059,11.396,2.813,17.156c0.09,0.81-0.812,2.193-1.62,2.644c-10.665,5.851-16.369,15.086-18.383,26.788
			c-0.551,3.261-2.081,4.544-5.389,5.253c-11.002,2.352-20.587,7.74-29.002,15.199c-0.742,0.663-1.564,1.236-2.296,1.944
			c-2.52,2.441-4.859,2.499-7.908,0.485c-9.169-6.075-16.864-13.568-23.186-22.534c-2.025-2.857-1.867-3.262,1.688-3.16
			c8.685,0.281,16.583-2.408,24.356-5.862c10.484-4.646,20.644-9.888,29.418-17.403c1.159-0.979,1.947-2.385,2.914-3.578
			c-1.395,0.417-2.936,0.585-4.173,1.283c-6.288,3.533-12.488,7.256-18.766,10.812c-1.563,0.889-3.296,1.462-4.96,2.148
			c-2.408,1.001-3.702,1.148-3.106-2.385c0.99-5.94,1.329-12.004-0.921-17.82c-0.598-1.531-0.957-3.871-3.669-2.531l-0.056-0.045
			c3.386-7.92,0.528-14.906-3.42-21.645c-1.474-2.542-2.778-2.362-4.105,0.495c-1.925,4.118-3.747,8.28-5.525,12.465
			c-0.821,1.946-1.957,2.205-3.746,1.26c-1.575-0.855-3.285-1.474-4.927-2.228c-1.328-0.607-2.644-1.283-3.96-1.924
			c1.396-0.067,2.802-0.067,4.174-0.213c0.394-0.045,0.743-0.54,1.125-0.833c-0.315-0.213-0.596-0.596-0.934-0.652
			c-3.757-0.528-7.504-1.282-11.284-1.406c-3.296-0.113-5.253-0.979-5.816-4.556c-0.203-1.339-1.665-2.475-2.565-3.701l0.27-8.449
			c-0.203-4.466-2.666-6.986-7.166-7.346c-4.568-0.372-9.158-0.473-13.714-0.698c-0.596-0.034-1.373,0.135-1.743-0.18
			c-0.709-0.597-1.193-1.485-1.778-2.239c0.731-0.473,1.417-1.271,2.193-1.351c4.185-0.46,8.381-0.911,12.589-1.057
			c14.265-0.473,28.507-0.36,42.603,2.284c1.767,0.326,3.511,0.854,5.153,1.552c2.385,1.012,5.118,4.455,5.861-1.519
			c0.057-0.528,3.353-1.361,4.68-0.854c1.271,0.495,2.497,2.486,2.7,3.971c0.664,4.725,0.686,9.54,1.248,14.276
			c0.304,2.554,0.687,5.288,1.89,7.493c2.521,4.624,1.362,9.405,1.406,14.152c0,0.911-0.606,1.935-1.203,2.689
			c-0.676,0.888-1.643,1.541-2.497,2.284c-0.19-0.957-0.395-1.901-0.551-2.869c-1.374-8.505-2.733-17.01-4.129-25.515
			c-0.191-1.192-0.405-2.408-0.867-3.499c-0.269-0.63-1.022-1.069-1.563-1.586c-0.292,0.641-0.911,1.328-0.854,1.924
			c0.235,1.991,0.854,3.926,1.046,5.906c0.854,9.191,1.619,18.371,2.407,27.562c0.124,1.396-0.045,2.857,0.271,4.208
			c0.304,1.293,1.047,2.475,1.597,3.723c0.496-0.979,0.878-2.058,1.553-2.914c0.844-1.08,1.924-1.991,2.913-2.981l-0.021-0.023
			c0.404-0.394,0.81-0.798,1.227-1.203l0.033-0.034c-0.012,0.011-0.022,0.034-0.022,0.045c-0.415,0.405-0.81,0.821-1.216,1.215
			c0.609,0.472,1.644,1.395,1.745,1.316c7.796-7.268,18.078-10.328,26.853-15.93C230.665,148.063,233.735,145.319,236.436,142.405z"
			/>
		<path fill="#FFFFFF" d="M231.981,142.81c-2.746,2.25-5.94,4.208-9.248,5.501c-8.708,3.443-16.414,8.235-22.725,15.188
			c3.251-4.713,6.479-9.472,9.798-14.141c0.417-0.585,1.316-1.114,2.004-1.147c5.759-0.226,8.819-4.365,12.025-8.202
			c1.8-2.16,3.431-4.466,5.018-6.772c2.441-3.521,2.497-3.555,4.488-0.045C235.592,137.163,235.469,139.953,231.981,142.81z"/>
		<path fill="#FFFFFF" d="M216.873,102.771c8.752,0.563,13.645,4.5,15.771,12.926c0.653,2.554-0.27,2.284-1.99,1.553
			c-4.153-1.789-8.281-1.417-12.14,0.708c-2.531,1.406-3.994,1.271-5.963-1.204c-1.766-2.228-4.702-3.487-7.031-5.288
			c-1.001-0.787-2.475-1.867-2.44-2.801c0.012-1.058,1.249-2.701,2.295-3.038C209.132,104.436,213.024,103.694,216.873,102.771z"/>
	</g>
	<line fill="none" x1="156.496" y1="32.033" x2="156.473" y2="32.009"/>
	<path fill="#FFFFFF" d="M199.948,163.585c-0.409,0.41-0.809,0.821-1.207,1.218l-0.023-0.023c0.399-0.398,0.809-0.796,1.219-1.208
		L199.948,163.585z"/>
	<line fill="none" x1="144.402" y1="135.813" x2="144.426" y2="135.836"/>
</g>
<path fill="#FFFFFF" d="M157.727,211.299L157.727,211.299z"/>
<path fill="#212C3B" d="M150.524,214.053L150.524,214.053z"/>
</svg>
