<?xml version="1.0" encoding="utf-8"?>
<!-- Generator: Adobe Illustrator 16.0.0, SVG Export Plug-In . SVG Version: 6.00 Build 0)  -->
<!DOCTYPE svg PUBLIC "-//W3C//DTD SVG 1.1//EN" "http://www.w3.org/Graphics/SVG/1.1/DTD/svg11.dtd">
<svg version="1.1" id="Layer_1" xmlns="http://www.w3.org/2000/svg" xmlns:xlink="http://www.w3.org/1999/xlink" x="0px" y="0px"
	 width="100px" height="100px" viewBox="0 0 100 100" enable-background="new 0 0 100 100" xml:space="preserve">
<path fill="#FEFEFE" d="M78.063,73.562V54.041c0-10.457-5.586-15.323-13.027-15.323c-6.006,0-8.699,3.304-10.197,5.621v-4.822H43.52
	c0.15,3.195,0,34.045,0,34.045h11.318V54.548c0-1.015,0.07-2.031,0.373-2.758c0.816-2.034,2.676-4.139,5.801-4.139
	c4.1,0,5.734,3.122,5.734,7.696v18.217h11.316V73.562z M31.6,34.87c3.945,0,6.402-2.618,6.402-5.886
	c-0.072-3.337-2.457-5.879-6.328-5.879s-6.4,2.539-6.4,5.879c0,3.268,2.455,5.886,6.254,5.886H31.6z M50,100
	C22.387,100,0,77.613,0,50C0,22.386,22.387,0,50,0s50,22.386,50,50C100,77.613,77.613,100,50,100z M37.256,73.562V39.517H25.941
	v34.045H37.256z"/>
</svg>
