<?xml version="1.0" encoding="utf-8"?>
<!-- Generator: Adobe Illustrator 16.0.0, SVG Export Plug-In . SVG Version: 6.00 Build 0)  -->
<!DOCTYPE svg PUBLIC "-//W3C//DTD SVG 1.1//EN" "http://www.w3.org/Graphics/SVG/1.1/DTD/svg11.dtd">
<svg version="1.1" id="Layer_1" xmlns="http://www.w3.org/2000/svg" xmlns:xlink="http://www.w3.org/1999/xlink" x="0px" y="0px"
	 width="200px" height="232.877px" viewBox="0 0 200 232.877" enable-background="new 0 0 200 232.877" xml:space="preserve">
<g>
	<g>
		<line fill="none" stroke="#F2F2F2" stroke-width="2" stroke-miterlimit="10" x1="99.693" y1="8.171" x2="27.473" y2="40.158"/>
		<line fill="none" stroke="#F2F2F2" stroke-width="2" stroke-miterlimit="10" x1="99.693" y1="8.171" x2="172.527" y2="40.158"/>
		<g>
			<path fill="#4D4D4D" d="M104.7,1.654L93.176,13.179c0.425,0.565,0.926,1.068,1.48,1.508l11.553-11.553
				C105.77,2.581,105.267,2.079,104.7,1.654z"/>
			<path fill="#D2D2D2" d="M106.209,3.134L94.656,14.687c1.404,1.118,3.173,1.796,5.108,1.796c4.552,0,8.242-3.69,8.242-8.241
				C108.006,6.307,107.327,4.538,106.209,3.134z"/>
			<path fill="#D2D2D2" d="M99.764,0c-4.551,0-8.242,3.69-8.242,8.243c0,1.854,0.621,3.56,1.654,4.937L104.7,1.654
				C103.324,0.62,101.618,0,99.764,0z"/>
		</g>
	</g>
	<g>
		<path fill="#FF7F35" d="M200,202.009c0,17.048-13.82,30.868-30.868,30.868H30.868C13.82,232.877,0,219.057,0,202.009V63.745
			c0-17.048,13.82-30.868,30.868-30.868h138.264c17.048,0,30.868,13.82,30.868,30.868V202.009z"/>
		<path fill="#FFB286" d="M189,208.581c0,7.343-5.952,13.296-13.295,13.296H24.295c-7.343,0-13.295-5.953-13.295-13.296V57.173
			c0-7.343,5.952-13.296,13.295-13.296h151.41c7.343,0,13.295,5.953,13.295,13.296V208.581z"/>
		<rect x="27" y="59.877" fill="#FFFFFF" width="146" height="145"/>
	</g>
	<g>
		<path fill="#FFE5CC" d="M110.855,203.444l26.796-25.853c0,0-10.67-3.381-17.426-8.536c-7.627-5.822,1.813-19.998,1.813-19.996
			L77.4,147.243c0-0.001,10.745,15.409,3.117,21.229c-6.754,5.157-18.728,7.304-18.728,7.304l26.796,25.852L110.855,203.444z"/>
		<g>
			<path fill="#1870CA" d="M127.476,172.724c0,10.723-12.191,19.429-27.258,19.429c-15.046,0-27.562-8.625-27.562-19.346
				c0-1,0.103-1.609,0.304-2.57c2.309-0.511,5.034-1.419,7.558-1.765c-0.781,1.327-1.198,2.764-1.198,4.252
				c0,7.071,9.578,13.066,20.898,13.066c11.338,0,20.898-5.995,20.898-13.066c0-1.27-0.309-2.506-0.891-3.668
				c2.489,0.453,5.017,0.705,7.25,1.287C127.585,171.035,127.476,172.016,127.476,172.724z"/>
			<path fill="#21ACE7" d="M172.527,198.657c0,0-12.25-20.499-45.268-28.368c0.146,0.801,0.216,1.617,0.216,2.435
				c0,10.723-12.191,19.429-27.258,19.429c-15.046,0-27.258-8.706-27.258-19.429c0-0.852,0.073-1.706,0.236-2.542
				c-33.364,7.796-45.723,28.476-45.723,28.476v6.702h145.055V198.657z"/>
		</g>
		
			<ellipse transform="matrix(0.918 -0.3966 0.3966 0.918 -47.3802 35.8078)" fill="#FFE5CC" cx="62.899" cy="132.477" rx="4.543" ry="7.799"/>
		<path fill="#FFE5CC" d="M133.236,130.675c-1.709,3.953-1.229,7.965,1.075,8.962c2.303,0.995,5.556-1.406,7.267-5.358
			c1.706-3.955,1.225-7.968-1.081-8.963C138.193,124.322,134.942,126.722,133.236,130.675z"/>
		<path fill="#FFE5CC" d="M100.176,74.579c-21.176,0-38.341,20.945-38.341,46.78c0,25.846,17.165,46.791,38.341,46.791
			s38.341-20.945,38.341-46.791C138.517,95.524,121.352,74.579,100.176,74.579z M125.615,128.975
			c-8.187,6.626-19.561,2.352-21.165,0c-0.944-1.373-1.538-2.648-1.879-3.835h-7.099c-0.341,1.187-0.935,2.462-1.879,3.835
			c-1.615,2.352-12.978,6.626-21.165,0c-6.066-4.944-2.099-12,0.747-12.626c4.275-0.945,10.165-1.439,18.847,0
			c1.033,0.176,3.911,2.583,3.791,6.593h6.418c-0.122-4.011,2.758-6.417,3.791-6.593c8.681-1.439,14.571-0.945,18.846,0
			C127.703,116.975,131.671,124.03,125.615,128.975z"/>
		<path d="M58.203,108.17l1.97,11.208c0,0,5.527-16.735,10.879-15.826c4.87-2.5,20.322-0.141,27.308-2.045l11.384-4.771
			c0,0-4.292,9.314-9.302,11.132c14.324,2.725,20.677-3.408,20.677-3.408l-1.131,3.862c0,0,11.054-1.363,12.526-7.042
			c4.139,6.021,5.486,20.898,5.486,20.898V99.689l3.49,0.227c0,0,5.717-15.674-22.903-31.122l-1.2,3.635
			c0,0-9.694-7.408-17.387-8.405v4.77c0,0-15.674-5.905-34.982,7.497l-5.877-1.818l3.037,7.724c0,0-8.348-1.362-10.619-4.316
			c4.804,8.353,3.89,9.996,3.89,9.996L51.6,89.013c0,0,6.141,6.814,9.321,6.587c0,0-6.357,9.994-6.51,14.235L58.203,108.17z"/>
		<g>
			<path fill="#FFFFFF" d="M93.957,124.883c0,0-6.479,4.457-13.277,3.011c-6.798-1.447-8.655-6.116-8.655-6.116
				s5.615-3.4,10.967-2.822C89.298,119.636,93.957,124.883,93.957,124.883z"/>
			<g>
				<ellipse fill="#603813" cx="83.019" cy="124.02" rx="4.344" ry="3.987"/>
			</g>
			<ellipse cx="83.384" cy="124.731" rx="1.926" ry="1.873"/>
			<ellipse fill="#FFFFFF" cx="83.949" cy="125.235" rx="0.843" ry="0.82"/>
			<g>
				<path fill="#FFFFFF" d="M82.004,120.034c0.204-0.019,0.42-0.027,0.637-0.025c2.787,0.027,5.023,1.837,5.002,4.044
					c-0.021,2.195-2.292,3.963-5.079,3.937c-0.217-0.003-0.433-0.015-0.636-0.048c2.498-0.22,4.127-1.9,4.146-3.923
					C86.094,121.986,84.497,120.313,82.004,120.034z"/>
			</g>
			<g>
				<path d="M83.019,120.282c2.258,0,4.094,1.677,4.094,3.738s-1.836,3.737-4.094,3.737s-4.094-1.677-4.094-3.737
					S80.761,120.282,83.019,120.282 M83.019,120.032c-2.399,0-4.344,1.786-4.344,3.988s1.945,3.987,4.344,3.987
					s4.344-1.785,4.344-3.987S85.418,120.032,83.019,120.032L83.019,120.032z"/>
			</g>
		</g>
		<g>
			<path fill="#FFFFFF" d="M104.992,124.883c0,0,6.479,4.457,13.277,3.011c6.797-1.447,8.654-6.116,8.654-6.116
				s-5.615-3.4-10.967-2.822C109.649,119.636,104.992,124.883,104.992,124.883z"/>
			<g>
				<ellipse fill="#603813" cx="115.93" cy="124.02" rx="4.344" ry="3.987"/>
			</g>
			<ellipse cx="115.564" cy="124.731" rx="1.926" ry="1.873"/>
			<ellipse fill="#FFFFFF" cx="114.999" cy="125.235" rx="0.843" ry="0.82"/>
			<g>
				<path fill="#FFFFFF" d="M114.148,127.979c0.219,0.021,0.452,0.03,0.687,0.03c3.012,0,5.443-1.788,5.443-3.995
					c0-2.196-2.432-3.985-5.443-3.985c-0.234,0-0.468,0.01-0.687,0.041c2.693,0.244,4.755,1.921,4.755,3.944
					C118.903,126.048,116.842,127.726,114.148,127.979z"/>
			</g>
			<g>
				<path d="M115.93,120.282c2.258,0,4.094,1.677,4.094,3.738s-1.836,3.737-4.094,3.737s-4.094-1.677-4.094-3.737
					S113.672,120.282,115.93,120.282 M115.93,120.032c-2.399,0-4.344,1.786-4.344,3.988s1.944,3.987,4.344,3.987
					s4.344-1.785,4.344-3.987S118.329,120.032,115.93,120.032L115.93,120.032z"/>
			</g>
		</g>
		<path fill-opacity="0.2" d="M125.615,128.975c-8.187,6.626-19.561,2.352-21.165,0c-0.944-1.373-1.538-2.648-1.879-3.835h-7.099
			c-0.341,1.187-0.935,2.462-1.879,3.835c-1.615,2.352-12.978,6.626-21.165,0c-6.066-4.944-2.099-12,0.747-12.626
			c4.275-0.945,10.165-1.439,18.847,0c1.033,0.176,3.911,2.583,3.791,6.593h6.418c-0.122-4.011,2.758-6.417,3.791-6.593
			c8.681-1.439,14.571-0.945,18.846,0C127.703,116.975,131.671,124.03,125.615,128.975z"/>
		<path fill="#FFC295" d="M99.938,153.059c-1.669,0-3.227-0.278-4.566-0.859c-0.743-0.072-1.454-0.167-2.14-0.275
			c1.474,1.991,3.913,3.302,6.706,3.302c2.865,0,5.365-1.375,6.824-3.453c-0.633,0.118-1.295,0.222-1.985,0.308
			C103.378,152.746,101.721,153.059,99.938,153.059z"/>
		<path fill="#DF8F6A" d="M111.586,150.199c-1.129,1.66-6.002,2.896-11.864,2.896s-10.735-1.236-11.864-2.896
			c2.207,1.308,6.691,2.189,11.864,2.189C104.894,152.389,109.379,151.507,111.586,150.199z"/>
		<path fill-opacity="0.6" d="M129.648,120.799c-0.648-2.726-2.604-5.099-4.539-5.527c-2.835-0.626-5.77-0.923-8.966-0.923
			c-3.154,0-6.627,0.307-10.309,0.912c-1.517,0.264-4.296,2.769-4.671,6.583h-4.285c-0.374-3.813-3.154-6.319-4.682-6.583
			c-3.67-0.604-7.143-0.912-10.297-0.912c-3.197,0-6.131,0.296-8.956,0.923c-1.956,0.429-3.912,2.802-4.56,5.527
			c-0.792,3.352,0.429,6.648,3.351,9.033c3.055,2.473,6.901,3.78,11.121,3.78c5.231,0,10.341-2.11,11.638-4.011
			c0.769-1.121,1.362-2.254,1.769-3.363h5.517c0.407,1.109,1,2.242,1.758,3.352c1.298,1.901,6.407,4.022,11.649,4.022
			c4.219,0,8.065-1.308,11.121-3.792C129.23,127.447,130.45,124.15,129.648,120.799z M125.615,128.975
			c-8.187,6.626-19.561,2.352-21.165,0c-0.944-1.373-1.538-2.648-1.879-3.835h-7.099c-0.341,1.187-0.935,2.462-1.879,3.835
			c-1.615,2.352-12.978,6.626-21.165,0c-6.066-4.944-2.099-12,0.747-12.626c4.275-0.945,10.165-1.439,18.847,0
			c1.033,0.176,3.911,2.583,3.791,6.593h6.418c-0.122-4.011,2.758-6.417,3.791-6.593c8.681-1.439,14.571-0.945,18.846,0
			C127.703,116.975,131.671,124.03,125.615,128.975z"/>
		<path fill-opacity="0.1" d="M125.615,128.975c-8.187,6.626-19.561,2.352-21.165,0c-0.944-1.373-1.538-2.648-1.879-3.835h-7.099
			c-0.341,1.187-0.935,2.462-1.879,3.835c-1.615,2.352-12.978,6.626-21.165,0c-6.066-4.944-2.099-12,0.747-12.626
			c4.275-0.945,10.165-1.439,18.847,0c1.033,0.176,3.911,2.583,3.791,6.593h6.418c-0.122-4.011,2.758-6.417,3.791-6.593
			c8.681-1.439,14.571-0.945,18.846,0C127.703,116.975,131.671,124.03,125.615,128.975z"/>
	</g>
</g>
</svg>
