<?xml version="1.0" encoding="utf-8"?>
<!-- Generator: Adobe Illustrator 16.0.0, SVG Export Plug-In . SVG Version: 6.00 Build 0)  -->
<!DOCTYPE svg PUBLIC "-//W3C//DTD SVG 1.1//EN" "http://www.w3.org/Graphics/SVG/1.1/DTD/svg11.dtd">
<svg version="1.1" id="Layer_1" xmlns="http://www.w3.org/2000/svg" xmlns:xlink="http://www.w3.org/1999/xlink" x="0px" y="0px"
	 width="20px" height="20px" viewBox="0 0 20 20" enable-background="new 0 0 20 20" xml:space="preserve">
<g>
	<polygon fill="#FFFFFF" points="12.016,15.923 7.983,15.923 5.968,18.642 5.968,20 7.983,20 12.016,20 14.031,20 14.031,18.642 	
		"/>
	<path fill="#FFFFFF" d="M18.666,0H1.335C0.598,0,0,0.608,0,1.357v12.45c0,0.749,0.598,1.356,1.335,1.356h17.333
		c0.734,0,1.332-0.607,1.332-1.356V1.357C20,0.608,19.402,0,18.666,0z M10.089,14.667c-0.637,0-1.153-0.522-1.153-1.166
		s0.517-1.166,1.153-1.166c0.638,0,1.153,0.522,1.153,1.166S10.727,14.667,10.089,14.667z M18.569,11.94H1.43V1.444h17.139V11.94z"
		/>
</g>
</svg>
