<?xml version="1.0" encoding="utf-8"?>
<!-- Generator: Adobe Illustrator 16.0.0, SVG Export Plug-In . SVG Version: 6.00 Build 0)  -->
<!DOCTYPE svg PUBLIC "-//W3C//DTD SVG 1.1//EN" "http://www.w3.org/Graphics/SVG/1.1/DTD/svg11.dtd">
<svg version="1.1" id="Layer_1" xmlns="http://www.w3.org/2000/svg" xmlns:xlink="http://www.w3.org/1999/xlink" x="0px" y="0px"
	 width="100px" height="100px" viewBox="0 0 100 100" enable-background="new 0 0 100 100" xml:space="preserve">
<g>
	<path fill="#FFFFFF" d="M50,0C22.391,0,0,22.391,0,50c0,27.62,22.391,50,50,50s50-22.38,50-50C100,22.391,77.609,0,50,0z
		 M75.629,74.41c0,3.37-2.729,6.109-6.1,6.109H30.471c-3.371,0-6.102-2.739-6.102-6.109V25.59c0-3.369,2.73-6.109,6.102-6.109
		h39.059c3.371,0,6.109,2.74,6.1,6.109V74.41z"/>
	<path fill="#FFFFFF" d="M46.531,42.25l-2.461,2.449l-2.461-2.449l2.07-5.002h-0.023l-0.807-0.921
		c0.404,0.139,0.795,0.23,1.221,0.23s0.828-0.08,1.207-0.23l-0.793,0.921h-0.023L46.531,42.25z"/>
	<path fill="#FFFFFF" d="M68.281,23.727H31.721c-1.893,0-3.428,1.535-3.428,3.426v45.705c0,1.881,1.535,3.426,3.428,3.426h36.561
		c1.889,0,3.426-1.545,3.426-3.426V27.152C71.707,25.262,70.17,23.727,68.281,23.727z M42.014,36.418
		c-1.484-1.002-2.508-2.971-2.508-4.736c0-2.51,2.035-4.533,4.531-4.533c2.508,0,4.531,2.023,4.531,4.533
		c0,1.775-1.021,3.746-2.508,4.736c3.553,0.902,6.18,3.982,6.18,6.264c0,1.357-4.102,2.023-8.203,2.023s-8.203-0.666-8.203-2.023
		C35.834,40.4,38.461,37.32,42.014,36.418z M62.045,73.221h-8.432c-0.58,0-1.049-0.703-1.049-1.572c0-0.871,0.469-1.574,1.049-1.574
		h8.432c0.582,0,1.051,0.703,1.051,1.574C63.096,72.518,62.627,73.221,62.045,73.221z M62.045,66.879H50
		c-0.58,0-1.049-0.715-1.049-1.572c0-0.871,0.469-1.586,1.049-1.586h12.045c0.582,0,1.051,0.715,1.051,1.586
		C63.096,66.164,62.627,66.879,62.045,66.879z M62.045,56.131H37.953c-0.58,0-1.049-0.717-1.049-1.586
		c0-0.871,0.469-1.574,1.049-1.574h24.092c0.582,0,1.051,0.703,1.051,1.574C63.096,55.414,62.627,56.131,62.045,56.131z
		 M62.045,51.338H37.953c-0.58,0-1.049-0.703-1.049-1.574c0-0.869,0.469-1.572,1.049-1.572h24.092c0.582,0,1.051,0.703,1.051,1.572
		C63.096,50.635,62.627,51.338,62.045,51.338z"/>
</g>
</svg>
