<?xml version="1.0" encoding="utf-8"?>
<!-- Generator: Adobe Illustrator 16.0.0, SVG Export Plug-In . SVG Version: 6.00 Build 0)  -->
<!DOCTYPE svg PUBLIC "-//W3C//DTD SVG 1.1//EN" "http://www.w3.org/Graphics/SVG/1.1/DTD/svg11.dtd">
<svg version="1.1"
	 id="svg2" xmlns:svg="http://www.w3.org/2000/svg" xmlns:rdf="http://www.w3.org/1999/02/22-rdf-syntax-ns#" xmlns:dc="http://purl.org/dc/elements/1.1/" xmlns:cc="http://creativecommons.org/ns#"
	 xmlns="http://www.w3.org/2000/svg" xmlns:xlink="http://www.w3.org/1999/xlink" x="0px" y="0px" width="350px" height="350px"
	 viewBox="0 0 350 350" enable-background="new 0 0 350 350" xml:space="preserve">
<g>
	<path id="path4" fill="#212C3B" d="M302.439,123.585l-1.682-10.288c0,0-2.006-2.847,1.553-3.752
		c3.561-0.905,4.271-0.906,4.271-0.906l3.883-1.294c0,0,17.664-1.294,20.9,1.035l-0.777-3.753l1.035-17.6
		c0,0-4.658-34.424-12.682-39.082c0,0-26.143,10.871-28.213,10.871l-3.103,10.094c0,0-1.553,1.553-4.143,1.813
		c-2.588,0.258-53.059-12.166-69.104-8.283v7.248l-14.494-1.035l3.105-8.801l-24.07-15.528l-14.753,10.353l-17.083-13.459
		l-19.67,20.447l-5.694-1.294c0,0-8.745-12.271-38.305,9.06l-9.577-19.412c0,0-34.423,22-53.058,18.635
		c0,0,1.553,18.635,7.765,32.869l11.388-4.398c0,0,2.329,1.035,1.165,2.848c-1.164,1.812,3.235,14.622,2.459,21.87
		c-0.777,7.247-3.753,28.858-3.753,28.858s9.706,13.976,5.824,29.765c0,0-18.376,13.588-34.941,10.482
		c0,0,7.894,22.518,14.364,35.199c6.471,12.682,0.259,24.588,13.717,16.047c13.459-8.541,27.953-20.965,27.953-20.965l23.553,4.918
		l3.881,42.705l23.294,2.07l17.082-12.035l9.576-5.436l27.952,3.625l2.329-23.555c0,0,9.06-24.588,8.282-30.541
		c0,0,14.494,16.822,23.295,16.564l25.623-18.895c0,0,3.365,19.412-3.883,42.705c0,0-5.176,11.131,5.953,9.059
		c11.129-2.07,12.682-1.293,20.707-4.916c8.021-3.625,20.445-6.213,38.819,1.035l38.564-0.777c0,0-23.158-62.479-21.482-64.188
		c0,0-27.952-22.776-24.845-37.011C288.53,132.323,302.439,123.585,302.439,123.585L302.439,123.585z"/>
	<path id="path16" fill="#212C3B" d="M0.008,152.509c0,0-1.552-25.104,37.27-50.729c0,0,4.918,23.554-1.035,47.882
		c0,0,10.095,18.635,6.212,24.07l0.518,5.953c0,0-22,10.869-29.505,6.471C13.467,186.156,0.785,174.25,0.008,152.509z"/>
	<path id="path18" fill="#212C3B" d="M177.69,238.049c0,0,2.068-11.904,3.363-15.529c1.295-3.623,4.66-12.682,4.66-12.682
		s9.059,15.529,19.928,12.424c10.871-3.105,23.813-17.342,23.813-17.342l-2.328,28.988
		C227.124,233.908,212.63,238.568,177.69,238.049L177.69,238.049z"/>
	<path id="path20" fill="#212C3B" d="M307.1,126.757l-3.363-13.201c0,0,4.916-6.47,19.67-3.623l11.904,10.871
		c0,0,19.152,19.93,13.719,38.047c-5.438,18.118-17.342,33.647-27.953,39.083l-7.766-14.754c0,0-27.692-26.14-24.845-36.492
		C291.311,136.333,302.699,127.534,307.1,126.757L307.1,126.757z"/>
	<path id="path42" fill="#212C3B" d="M79.5,295.941h9.194c0,0.156,0.006,0.379,0.018,0.666c0.031,0.754,0.049,1.258,0.049,1.521
		c0,3.269-0.938,5.808-2.807,7.612c-1.875,1.811-4.514,2.715-7.918,2.715c-1.906,0-3.603-0.281-5.094-0.84
		c-1.49-0.564-2.801-1.41-3.916-2.541c-1.101-1.123-1.945-2.439-2.531-3.957c-0.59-1.51-0.883-3.13-0.883-4.853
		c0-1.756,0.297-3.377,0.894-4.859c0.603-1.48,1.485-2.787,2.661-3.918c1.132-1.111,2.46-1.957,3.982-2.541
		c1.522-0.58,3.153-0.873,4.887-0.873c1.826,0,3.469,0.336,4.91,1.002c1.44,0.666,2.73,1.686,3.862,3.063l-2.752,2.08
		c-0.786-0.91-1.669-1.588-2.655-2.031c-0.979-0.443-2.08-0.668-3.299-0.668c-2.52,0-4.574,0.811-6.167,2.424
		s-2.389,3.713-2.389,6.291c0,2.629,0.796,4.757,2.389,6.388c1.593,1.637,3.658,2.455,6.199,2.455c2.157,0,3.858-0.504,5.093-1.506
		c1.241-1.01,1.859-2.375,1.859-4.113v-0.329H79.5L79.5,295.941L79.5,295.941z M125.404,298.705h6.479l-2.384-5.299
		c-0.135-0.336-0.282-0.729-0.428-1.166c-0.146-0.439-0.299-0.928-0.445-1.469c-0.124,0.51-0.26,0.98-0.406,1.42
		c-0.141,0.438-0.287,0.846-0.433,1.215L125.404,298.705L125.404,298.705z M135.852,307.839l-2.634-5.982h-9.211l-2.699,5.982
		h-3.966l11.254-24.155l11.243,24.155H135.852z M188.741,296.363c-0.043-0.18-0.113-0.678-0.205-1.49
		c-0.088-0.676-0.164-1.24-0.223-1.684c-0.1,0.529-0.232,1.061-0.406,1.586c-0.174,0.531-0.396,1.066-0.662,1.619l-6.08,12.388
		l-6.079-12.642c-0.254-0.52-0.477-1.02-0.661-1.506c-0.186-0.488-0.347-0.971-0.482-1.445c-0.011,0.486-0.049,0.994-0.119,1.531
		s-0.174,1.096-0.309,1.674l-2.492,11.444h-3.479l5.494-24.22l6.861,14.668c0.102,0.227,0.264,0.617,0.48,1.151
		c0.217,0.543,0.477,1.209,0.785,2c0.223-0.666,0.574-1.512,1.051-2.534c0.125-0.277,0.223-0.488,0.283-0.635l6.703-14.65
		l5.617,24.22h-3.512L188.741,296.363L188.741,296.363z M225.604,307.839v-23.245h12.973v3.221h-9.201v5.818h9.201v3.314h-9.201
		v7.509h9.201v3.383H225.604L225.604,307.839z M269.337,303.183l3.012-1.391c0.287,1.035,0.813,1.826,1.576,2.367
		c0.76,0.547,1.734,0.816,2.922,0.816c1.127,0,2.016-0.313,2.684-0.938c0.658-0.621,0.99-1.457,0.99-2.502
		c0-1.365-1.133-2.585-3.402-3.651c-0.32-0.158-0.563-0.275-0.73-0.348c-2.563-1.252-4.271-2.379-5.121-3.393
		c-0.852-1.014-1.279-2.248-1.279-3.705c0-1.896,0.646-3.432,1.93-4.605c1.285-1.176,2.977-1.762,5.063-1.762
		c1.711,0,3.146,0.33,4.301,0.992c1.154,0.66,1.951,1.607,2.396,2.844l-2.947,1.529c-0.467-0.732-0.975-1.27-1.533-1.605
		c-0.559-0.342-1.197-0.51-1.918-0.51c-1.014,0-1.826,0.266-2.422,0.797c-0.604,0.525-0.9,1.236-0.9,2.125
		c0,1.396,1.316,2.703,3.945,3.906c0.199,0.098,0.357,0.174,0.477,0.221c2.297,1.063,3.875,2.098,4.73,3.105
		c0.855,1.014,1.283,2.274,1.283,3.786c0,2.199-0.693,3.949-2.08,5.244c-1.389,1.295-3.262,1.945-5.625,1.945
		c-1.977,0-3.598-0.455-4.865-1.365C270.556,306.181,269.726,304.88,269.337,303.183L269.337,303.183z"/>
</g>
<path id="path6" fill="#FFFFFF" d="M131.425,71.37l4.271-2.588l10.354-11.777c0,0,1.941-3.494,4.271-2.199
	c2.33,1.293,8.93,11.905,12.813,9.317c3.882-2.588,5.693-7.896,9.059-5.306c3.364,2.588,6.472,4.658,9.317,1.812
	c2.848-2.847,3.623-4.788,5.047-3.364s7.766,7.506,7.766,7.506s-1.424,1.293-1.424,4.013c0,2.717,4.012,15.528,4.012,15.528
	l-9.189,6.342c0,0-6.855-10.225-7.893-16.824c0,0,0.777,13.588,4.658,17.6l-6.988,3.623c0,0-8.802-13.07-10.354-19.412
	c0,0,1.424,14.236,6.342,20.059c0,0-5.047,3.365-9.316,3.106c0,0-8.801-18.118-10.742-21.87l1.555,8.67
	c0,0,1.553,10.482,6.858,14.754l-9.578,1.035c0,0-2.458,0.389-4.528-4.142C145.66,92.722,142.036,84.052,131.425,71.37z"/>
<path fill="#FFFFFF" d="M315.645,58.685l-17.084,9.063l-4.922,7.766c0,0-10.606,5.432-16.817,6.73
	c-6.211,1.29-41.156-11.908-41.156-11.908l-15.264,3.878c0,0,3.355,10.874,3.355,17.34c0,6.476-12.676,6.987-25.617,10.353
	c-12.941,3.367-25.628,19.929-25.628,19.929s-13.136,2.721-19.02,3.303c-5.893,0.583-17.534-9.708-17.534-9.708l4.267-11.581
	c-4.398-17.084-24.46-31.183-28.992-33.647c-4.522-2.456-5.688,0.521-5.688,0.521c-3.622,4.911-15.142,6.987-15.142,6.987
	L76.428,84.44c-1.422-11.396-8.542-25.627-8.542-25.627C51.579,72.011,32.171,74.864,32.171,74.864l1.935,16.299
	c12.563,1.527,28.33-8.375,28.789-8.657c-0.361,0.371-8.207,8.418-10.865,9.312c-2.711,0.9-2.845,2.199-2.845,2.199l6.987,25.104
	l-2.844,20.184l-2.332,10.609c0,0,6.271,31.773,7.182,36.695c0.91,4.912-3.622,8.021-3.622,8.021s0-3.109,0-6.73
	c0-3.623-2.198-1.424-2.198-1.424c0.123-1.166-1.423-1.686-1.423-1.686c-3.108,6.086-17.604,11.395-19.54,11.006
	c-1.943-0.389-2.332,1.289-2.332,1.289s4.268,11.131,5.045,14.496c0.777,3.367,6.986,15.396,6.986,15.396s7.51-1.936,10.742-6.076
	c3.232-4.145,18.957-14.887,19.54-15.143c0.583-0.264,2.588-1.166,5.31-0.775c2.721,0.389,10.354-5.371,13.197-6.281
	c2.846-0.9,2.27-3.428,2.27-3.428c-6.73-8.541-11.65-35.971-11.65-35.971l-10.609-0.265c35.971-24.328,40.635,15.529,40.635,15.529
	s-9.319,17.085-12.164,25.105c-2.854,8.031-0.776,17.084-0.776,17.084l6.466,41.281l13.33,0.133c0,0,9.576-4.533,18.118-11.52
	c8.542-6.988,12.552-3.109,12.552-3.109l11.52,2.854c0.91-3.242,10.875-28.084,10.875-28.084l-28.859-11.773l1.034,9.574
	c-10.609-8.285-2.845-29.248-1.688-32.225c1.166-2.977-2.588-1.422,0.389-15.141c2.978-13.719-7.375-21.872-7.375-21.872
	l-6.724-10.354c-3.63,5.178-20.192,11.52-20.192,11.52s-8.277-0.388-11.131,0.389c-2.846,0.777-5.565-1.811-5.565-1.811
	c26.925,0.9,40.511-22.395,40.511-22.395s5.565,1.432,8.277,2.978c2.72,1.555,1.422,2.721,1.422,2.721l-2.579,9.832
	c9.832,6.607,12.42,14.761,12.42,14.761l-5.954-6.476l-1.032,5.698l3.621,7.375l-1.033,38.436l25.229,11.898
	c6.22-4.398-1.158-27.305-1.158-27.305s-4.274-13.975-6.475-24.072c-2.199-10.089,3.498-23.552,3.498-23.552
	c1.679-2.588,5.044,1.104,5.044,1.104c-11.388,40.89,29.895,69.167,30.998,70.007c1.096,0.838,2.324,0.193,2.324,0.193l2.393-2.332
	c6.732-1.289,35.203-28.727,35.203-28.727l-2.846,60.309l9.055,1.031l16.309-6.73l42.444,5.178l4.398-1.033
	c-5.689-20.963-6.986-43.225-6.986-43.225l-25.493-31.058l1.297,5.954l1.424,9.186c-16.818-23.293,5.76-53.444,5.76-53.444
	s1.481-2.394,2.71-4.725c1.236-2.323-0.572-6.078-0.572-6.078l-4.663-20.839c11.526,22.553,10.315,0.698,35.2,3.622
	C324.699,79.912,315.645,58.685,315.645,58.685z M113.442,105.405c-1.688,5.31-5.564,22.631-11.254,24.84
	c0.159-0.256,3.428-5.636,1.414-8.79c0,0-18.507,12.42-31.837,2.2l6.087,0.9c0,0,1.943-15.396-1.299-18.895l-7.376,6.21
	c0,0,1.166-6.21,6.987-8.277c5.83-2.075,10.229-7.243,11.13-7.765c0.91-0.521,5.821-6.344,13.463-1.034
	C108.389,100.097,115.121,100.097,113.442,105.405z M230.815,128.7l-5.697-2.2c3.232,3.622,3.232,9.708,3.232,9.708
	c2.465,6.599-1.289,17.464-1.289,17.464c-10.742,11.263-20.318,12.164-25.75,9.84c-5.441-2.332-10.875-11.908-10.875-11.908
	l1.291,6.855l-3.746-7.765c-0.777,4.274,3.621,12.164,3.621,12.164c-7.896-5.945-7.375-16.688-3.109-27.306
	c4.275-10.608,16.439-16.042,25.494-16.042c9.063,0,19.15,6.465,19.541,8.797C233.915,130.642,230.815,128.7,230.815,128.7z
	 M261.646,110.193c0.521,32.613-15.725,50.342-16.043,50.342c-0.326,0-1.75-17.084-1.75-17.084l-5.432,11.387
	c-2.598-6.917,5.301-16.113,8.922-24.39c3.631-8.286,0.777-10.354,0.777-10.354c-10.557-14.601-28.666-14.627-28.666-14.627
	l-3.418-2.376c-0.115-0.035-0.176-0.088-0.203-0.141l0.203,0.141c3.057,1.193,38.363-1.439,38.363-1.439l17.342,11.908
	L261.646,110.193z"/>
<path id="path10" fill="#D2D6D9" d="M222.153,80.778c-0.865-3.68-1.758-6.563-1.758-6.563l15.27-3.882
	c0,0,34.941,13.199,41.152,11.905c6.213-1.295,16.823-6.729,16.823-6.729l4.916-7.764l17.082-9.06c0,0,9.061,21.224,5.436,36.234
	c-1.447-0.17-2.803-0.253-4.082-0.27c1.463-11.252-3.52-28.295-3.52-28.295l-5.305,0.519l-9.189,2.717l-1.166,5.954
	c0,0-14.751,6.859-19.409,9.964c-4.658,3.105-23.293-5.177-38.436-8.8C231.364,74.651,225.562,77.733,222.153,80.778L222.153,80.778
	z"/>
<path id="path12" fill="#D2D6D9" d="M166.768,137.305c-1.156,3.003-5.07,14.124-3.185,22.775c2.198,10.094,6.47,24.072,6.47,24.072
	s7.378,22.904,1.164,27.305l-3.227-1.523c0.604-5.672,0.353-12.354,0.353-12.354s-8.929-38.045-9.317-39.598
	c-0.388-1.554,6.858-22,6.858-22L166.768,137.305L166.768,137.305z"/>
<path id="path14" fill="#FFFFFF" d="M158.796,107.087l7.894,5.046c0,0,10.095-7.247,11.905-10.741
	C178.595,101.394,173.289,104.24,158.796,107.087L158.796,107.087z"/>
<path id="path22" fill="#D2D6D9" d="M32.547,78.054c6.445-1.006,20.678-4.175,32.749-13.543l8.153,22l2.943-2.324
	c-1.496-11.345-8.508-25.371-8.508-25.371C51.58,72.017,32.168,74.862,32.168,74.862L32.547,78.054z"/>
<path id="path24" fill="#D2D6D9" d="M105.091,71.274c6.699,4.41,28.985,20.272,27.499,35.295c0,0-4.271,5.564-3.624,8.412
	c0,0-11.718,19.972-15.747,26.002c11.722-6.642,17.622-16.75,17.622-16.75s0.622,0.158,1.551,0.429l0,0l1.75-4.893
	c0,0,13.07,8.283,21.611,7.506c8.541-0.777,20.576-3.236,20.576-3.236l15.271-14.881c0,0,17.471-6.083,18.375-6.212
	c0.771-0.109,10.336-2,10.557-6.858c-4.586,2.526-13.428,3.49-22.396,5.822c-12.939,3.364-25.624,19.928-25.624,19.928
	s-13.135,2.717-19.023,3.299c-5.888,0.583-17.534-9.706-17.534-9.706l4.27-11.582c-4.399-17.081-24.458-31.188-28.987-33.646
	s-5.694,0.518-5.694,0.518C105.405,70.912,105.252,71.095,105.091,71.274z"/>
<path id="path26" fill="#D2D6D9" d="M78.364,204.732c2.309-2.666,5.602-6.182,7.8-7.672c0,0-9.966-14.365-10.968-37.886l0,0
	l5.306,0.129c0,0,4.918,27.437,11.647,35.978c0,0,0.582,2.521-2.266,3.428C87.501,199.467,81.764,203.625,78.364,204.732
	L78.364,204.732z"/>
<path id="path28" fill="#D2D6D9" d="M154.477,245.137l11.881-28.488l4.084,1.668c0,0-9.965,24.846-10.869,28.082L154.477,245.137
	L154.477,245.137z"/>
<path id="path30" fill="#D2D6D9" d="M137.679,207.844c-2.448-4.004-5.069-10.098-4.345-17.125c1.294-12.551,3.753-26.01,3.753-26.01
	s-7.929-19.464-15.87-23.385v-0.001c2.637-1.566,4.908-3.234,6-4.794l6.729,10.353c0,0,10.354,8.153,7.377,21.871
	c-2.978,13.716,0.775,12.164-0.389,15.14C140.066,186.111,135.529,198.336,137.679,207.844L137.679,207.844z"/>
<path id="path32" fill="#D2D6D9" d="M190.136,159.886c3.352,3.277,10.756,9.821,16.898,10.257c0,0,12.359,0.972,20.123-6.405
	c7.766-7.376,5.307-18.118,5.307-18.118l-1.65-16.92l-5.693-2.201c3.234,3.624,3.234,9.706,3.234,9.706
	c2.459,6.601-1.293,17.471-1.293,17.471c-10.742,11.259-20.318,12.165-25.754,9.835c-5.436-2.329-10.871-11.906-10.871-11.906
	l1.295,6.858l-3.754-7.765C187.507,153.286,188.937,157.2,190.136,159.886L190.136,159.886z"/>
<path id="path34" fill="none" d="M238.417,154.84l5.436-11.388c0,0,1.424,17.083,1.746,17.083c0.324,0,16.564-17.729,16.047-50.339
	l10.096,3.363l-17.342-11.906c0,0-37.924,2.83-38.564,1.295l3.623,2.523c0,0,18.109,0.026,28.666,14.623
	c0,0,2.846,2.071-0.777,10.354C243.724,138.729,235.827,147.917,238.417,154.84L238.417,154.84z"/>
<path id="path36" fill="none" d="M239.403,152.77c-0.135-0.478-0.162-0.895-0.049-1.229c1.033-3.041,4.563-9.867,4.725-9.867
	c0.16,0,2.846,1.618,3.201,2.523c0.355,0.904,0.484,0.646,0.713,1.392c0.125,0.413,0.391,6.208,0.604,11.271
	c-1.711,2.432-2.912,3.675-2.998,3.675c-0.322,0-1.746-17.083-1.746-17.083L239.403,152.77L239.403,152.77z"/>
<path id="path38" fill="none" d="M229.099,104.145c-0.041-0.962-8.91,1.353-8.91,1.353v0.001
	c3.479,0.187,18.635,1.738,27.936,14.596c0,0,2.846,2.071-0.777,10.354c-2.162,4.938-5.84,10.201-7.91,15.112
	c-0.145,1.271-0.176,2.361-0.053,3.18l14.045-19.359l2.33-19.541L229.099,104.145L229.099,104.145z"/>
<path id="path40" fill="#D2D6D9" d="M286.579,94.435l3.956,17.699c0,0,1.813,3.753,0.582,6.083c-1.23,2.329-2.718,4.724-2.718,4.724
	s-22.582,30.151-5.76,53.444l-1.424-9.186l-1.293-5.954l25.493,31.058c0,0,1.293,22.258,6.988,43.225l-4.4,1.033l-3.904-0.477
	c-2.49-8.83-6.877-27.844-2.922-40.963l-16.95-18.119l1.293,5.176c0,0-13.846-16.822-13.068-29.247
	c0.775-12.423,15.398-39.468,15.398-39.468S285.665,100.614,286.579,94.435z"/>
</svg>
