<?xml version="1.0" encoding="utf-8"?>
<!-- Generator: Adobe Illustrator 16.0.0, SVG Export Plug-In . SVG Version: 6.00 Build 0)  -->
<!DOCTYPE svg PUBLIC "-//W3C//DTD SVG 1.1//EN" "http://www.w3.org/Graphics/SVG/1.1/DTD/svg11.dtd">
<svg version="1.1" id="Layer_1" xmlns="http://www.w3.org/2000/svg" xmlns:xlink="http://www.w3.org/1999/xlink" x="0px" y="0px"
	 width="350px" height="350px" viewBox="0 0 350 350" enable-background="new 0 0 350 350" xml:space="preserve">
<g>
	<path fill="#212C3B" d="M310.852,143.614c-13.521-27.751-35.463-46.69-62.836-59.907c-0.647-0.316-1.392-0.624-2.097-0.036
		c-0.498,3.841-0.688,7.766-1.563,11.525c-3.106,13.46-12.592,21.207-24.643,26.224c-19.888,8.271-40.814,8.344-61.787,6.852
		c-11.598-0.823-22.925-3.29-33.447-8.605c-11.563-5.832-19.508-14.482-21.524-27.689c-0.425-2.767-0.497-5.578-0.741-8.543
		c-0.958,0.118-1.61,0.045-2.106,0.289C71.353,97.555,48.79,117.66,35.547,147.292c-1.283,2.867-0.153,4.384,1.817,6.138
		c13.017,11.598,27.435,21.108,43.183,28.556c41.113,19.453,84.241,24.806,128.998,17.873c36.963-5.725,70.141-20.063,98.822-44.333
		C314.195,150.593,314.223,150.529,310.852,143.614z"/>
	<path fill="#FF00FF" d="M81.793,153.033c-1.302,3.056-4.249,4.177-7.322,4.476c-6.716,0.651-12.8-1.248-18.016-5.47
		c-3.317-2.667-6.671-5.849-4.9-10.612c1.745-4.709,6.229-5.053,11.607-5.027c5.831,0.398,11.788,2.866,16.488,7.964
		C81.893,146.805,83.176,149.779,81.793,153.033z"/>
	<path fill="#FF00FF" d="M137.107,172.423c-1.148,3.363-4.194,4.521-7.431,5.063c-1.474,0.244-2.992,0.231-3.887,0.289
		c-7.169-0.072-13.125-1.826-17.809-6.626c-4.737-4.846-3.553-10.242,2.901-12.14c8.325-2.441,16.073-0.624,22.88,4.747
		C136.519,165.924,138.337,168.798,137.107,172.423z"/>
	<path fill="#FF00FF" d="M189.258,184.764c-6.509,4.846-19.915,4.817-26.487-0.055c-4.42-3.271-4.52-7.91-0.109-11.236
		c4.015-3.038,8.724-3.824,13.643-3.652c4.609-0.126,8.994,0.705,12.817,3.417C193.814,176.563,193.833,181.354,189.258,184.764z"/>
	<path fill="#FF00FF" d="M244.283,173.201c-3.563,4.085-10.784,7.025-17.438,7.087c-6.609,0.063-11.177-2.099-12.09-5.732
		c-0.979-3.904,2.044-8.37,7.967-11.263c5.773-2.82,11.813-4.357,18.24-2.287C247.273,163.05,248.658,168.193,244.283,173.201z"/>
	<path fill="#FF00FF" d="M298.955,145.458c-4.539,6.934-11.443,9.762-18.793,10.432c-4.412-0.217-7.919-0.994-9.664-4.783
		c-1.626-3.561,0.252-6.535,2.423-9.002c5.368-6.111,12.213-9.094,20.401-8.299C299.896,134.448,302.59,139.917,298.955,145.458z"/>
	<path fill="#212C3B" d="M240.125,84.087c-1.602-13.984-9.602-23.865-20.893-31.142c-20.772-13.379-43.489-15.846-67.155-10.097
		c-16.281,3.95-30.365,11.716-39.26,26.622c-10.496,17.6-5.162,36.366,12.89,45.958c2.902,1.537,5.994,2.82,9.122,3.869
		c12.683,4.249,25.799,5.586,40.173,5.415c5.27,0.19,11.57-0.126,17.844-0.958c12.467-1.646,24.67-4.186,35.084-11.834
		C237.313,105.041,241.462,95.74,240.125,84.087z"/>
	<path fill="#D2D6D9" d="M144.529,114.145c-9.735-2.992-18.333-6.201-24.95-13.243c-2.187-2.341-2.983-4.99-2.847-8.217
		c0.569-14.255,6.797-25.33,18.432-33.42c10.088-7.005,21.505-10.268,34.758-12.086C146.011,64.118,134.766,84.955,144.529,114.145z
		"/>
	<path fill="#212C3B" d="M306.855,168.319c-8.437,17.582-22.104,30.236-38.563,40.063c-21.551,12.874-45.101,19.563-69.95,22.257
		c-32.923,3.563-64.87-0.299-95.542-12.873c-22.129-9.063-41.348-22.156-54.546-42.759c-1.609-2.504-3.091-5.081-4.457-9.266
		c40.299,30.183,85.218,41.538,133.645,40.95c48.418-0.588,92.968-12.848,131.269-44.849
		C308.898,164.686,307.732,166.502,306.855,168.319z"/>
	<path fill="#212C3B" d="M315,231.443c-0.025,23.24-2.377,46.229-7.412,68.92c-1.411,6.392-2.18,7.4-6.191,9.697
		c-1.42-8.522-2.813-16.459-4.043-24.435c-1.338-8.761-2.539-17.547-3.769-26.325c-0.397-2.802-1.862-5.023-3.571-7.168
		c-9.201-11.544-21.104-19.58-34.008-26.342c-2.051-1.084-4.402-1.781-6.499-4.229c13.406-6.084,25.718-13.17,37.026-21.17
		c12.628,5.631,20.105,15.811,27.236,26.34C314.757,228.189,315,229.753,315,231.443z"/>
	<path fill="#212C3B" d="M102.883,221.211c-0.425,2.667-2.55,2.857-4.014,3.605c-10.639,5.472-20.511,11.979-29.388,20.066
		c-6.917,6.305-10.432,13.753-11.354,23.16c-1.229,12.548-3.625,24.995-5.559,37.479c-0.199,1.313-0.705,2.575-1.203,4.329
		c-4.022-1.293-4.474-4.526-5.251-7.269c-2.613-9.129-4.06-18.521-5.162-27.923c-1.609-13.75-2.947-27.526-3.046-41.396
		c-0.027-3.184,0.859-5.774,2.639-8.38c6.789-9.907,14.156-19.139,25.872-24.462C77.861,208.266,90,215.462,102.883,221.211z"/>
	<path fill="#212C3B" d="M196.968,238.08c-9.11,6.373-12.827,15.611-13.938,26.216c-0.703,6.733-1.229,13.485-2.088,20.194
		c-0.226,1.726,0.154,4.546-2.438,4.736c-2.883,0.197-2.313-2.688-2.655-4.401c-1.575-7.966-2.769-16.011-4.54-23.931
		c-2.16-9.602-5.967-18.352-14.797-23.908c-0.434-0.272-0.624-0.94-0.877-1.355c0.921-2.576,2.866-2.045,4.601-1.863
		c11.264,1.188,22.529,1.104,33.8,0.063c1.729-0.162,3.66-0.669,4.781,1.364C198.984,236.705,197.963,237.393,196.968,238.08z"/>
</g>
</svg>
