<?xml version="1.0" encoding="utf-8"?>
<!-- Generator: Adobe Illustrator 16.0.0, SVG Export Plug-In . SVG Version: 6.00 Build 0)  -->
<!DOCTYPE svg PUBLIC "-//W3C//DTD SVG 1.1//EN" "http://www.w3.org/Graphics/SVG/1.1/DTD/svg11.dtd">
<svg version="1.1" xmlns="http://www.w3.org/2000/svg" xmlns:xlink="http://www.w3.org/1999/xlink" x="0px" y="0px"
	 width="187.636px" height="64.604px" viewBox="0 0 187.636 64.604" enable-background="new 0 0 187.636 64.604"
	 xml:space="preserve">
<g id="Layer_1">
</g>
<g id="Isolation_Mode">
	<g>
		<g>
			
				<linearGradient id="SVGID_1_" gradientUnits="userSpaceOnUse" x1="-226.8594" y1="59.2402" x2="-226.8594" y2="119.9676" gradientTransform="matrix(1 0 0 -1 304 111.3477)">
				<stop  offset="0" style="stop-color:#1C75BC"/>
				<stop  offset="0.0921" style="stop-color:#1F6EAD"/>
				<stop  offset="0.3711" style="stop-color:#295A84"/>
				<stop  offset="0.6252" style="stop-color:#2F4C66"/>
				<stop  offset="0.8432" style="stop-color:#344354"/>
				<stop  offset="1" style="stop-color:#35404E"/>
			</linearGradient>
			<path fill="url(#SVGID_1_)" d="M74.534,18.331h0.813c0.197,0,0.394,0.028,0.582,0.085c1.229,0.367,2.64,1.098,3.713,2.195
				l-0.03-11.803c0,0-0.897-3.945-3.646-4.364c-2.75-0.418-8.865-0.856-8.865-0.856l8.845-0.199c0,0,3.945,0.797,4.623,3.386
				l6.256-2.749l-5.896,3.866l0.026,9.911c0.043-0.053,0.086-0.109,0.137-0.159l4.185-4.144c0.383-0.379,0.892-0.588,1.431-0.588
				h1.15c-0.004-4.18-0.107-8.805-0.195-9.284c-0.07-0.393-2.27-1.021-4.277-1.855c-1.844-0.766-3.479-1.76-4.248-1.771
				c-0.74-0.01-3.153,0.758-5.736,1.505c-3.044,0.88-5.59,1.438-6.257,1.763c-0.668,0.326-0.718,0.438-0.718,0.438
				c0.916,0.957,3.865,1.993,3.865,1.993C75.391,9.979,74.698,13.834,74.534,18.331z"/>
			
				<linearGradient id="SVGID_2_" gradientUnits="userSpaceOnUse" x1="-225.3809" y1="59.2412" x2="-225.3809" y2="119.9701" gradientTransform="matrix(1 0 0 -1 304 111.3477)">
				<stop  offset="0" style="stop-color:#1C75BC"/>
				<stop  offset="0.0921" style="stop-color:#1F6EAD"/>
				<stop  offset="0.3711" style="stop-color:#295A84"/>
				<stop  offset="0.6252" style="stop-color:#2F4C66"/>
				<stop  offset="0.8432" style="stop-color:#344354"/>
				<stop  offset="1" style="stop-color:#35404E"/>
			</linearGradient>
			<path fill="url(#SVGID_2_)" d="M77.562,32.314l2.115,1.504l-0.008-2.66c-0.092-0.449-0.166-0.909-0.221-1.379
				C78.837,30.732,78.162,31.604,77.562,32.314z"/>
			
				<linearGradient id="SVGID_3_" gradientUnits="userSpaceOnUse" x1="-207.5791" y1="59.2441" x2="-207.5791" y2="119.9666" gradientTransform="matrix(1 0 0 -1 304 111.3477)">
				<stop  offset="0" style="stop-color:#1C75BC"/>
				<stop  offset="0.0921" style="stop-color:#1F6EAD"/>
				<stop  offset="0.3711" style="stop-color:#295A84"/>
				<stop  offset="0.6252" style="stop-color:#2F4C66"/>
				<stop  offset="0.8432" style="stop-color:#344354"/>
				<stop  offset="1" style="stop-color:#35404E"/>
			</linearGradient>
			<path fill="url(#SVGID_3_)" d="M99.735,36.954l0.029-10.774h-1.546c-0.903,0-1.707-0.607-1.954-1.477
				c-0.247-0.87,0.118-1.809,0.888-2.284l0.157-0.098c0.059-0.036,0.121-0.07,0.187-0.101c0.047-0.036,0.096-0.073,0.153-0.108
				l1.001-0.619l-0.296-0.374h-5.276c0.059,2.708,0.096,7.125,0.118,11.702c0.261,0.494,0.56,0.961,0.911,1.393
				C95.427,35.835,97.273,36.734,99.735,36.954z"/>
			
				<linearGradient id="SVGID_4_" gradientUnits="userSpaceOnUse" x1="-226.7295" y1="59.2432" x2="-226.7295" y2="119.9682" gradientTransform="matrix(1 0 0 -1 304 111.3477)">
				<stop  offset="0" style="stop-color:#1C75BC"/>
				<stop  offset="0.0921" style="stop-color:#1F6EAD"/>
				<stop  offset="0.3711" style="stop-color:#295A84"/>
				<stop  offset="0.6252" style="stop-color:#2F4C66"/>
				<stop  offset="0.8432" style="stop-color:#344354"/>
				<stop  offset="1" style="stop-color:#35404E"/>
			</linearGradient>
			<path fill="url(#SVGID_4_)" d="M79.693,39.488h-4.878c0.164,7.817,0.329,14.871,0.331,15.054c0.582-0.69,1.869-1.683,4.581-1.958
				L79.693,39.488z"/>
			
				<linearGradient id="SVGID_5_" gradientUnits="userSpaceOnUse" x1="-200.3994" y1="59.2393" x2="-200.3994" y2="119.9676" gradientTransform="matrix(1 0 0 -1 304 111.3477)">
				<stop  offset="0" style="stop-color:#1C75BC"/>
				<stop  offset="0.0921" style="stop-color:#1F6EAD"/>
				<stop  offset="0.3711" style="stop-color:#295A84"/>
				<stop  offset="0.6252" style="stop-color:#2F4C66"/>
				<stop  offset="0.8432" style="stop-color:#344354"/>
				<stop  offset="1" style="stop-color:#35404E"/>
			</linearGradient>
			<path fill="url(#SVGID_5_)" d="M99.798,12.912l0.014-5.021l-5.896-3.866l6.256,2.749c0.679-2.589,4.623-3.386,4.623-3.386
				l8.845,0.199c0,0-6.115,0.438-8.865,0.856c-2.749,0.419-3.646,4.364-3.646,4.364l-0.004,4.104h5.065
				c0.297-2.4,1.308-4.735,4.261-7.212c0,0,2.951-1.036,3.866-1.993L113.6,3.268c0,0-3.213-0.883-6.259-1.763
				c-2.582-0.747-4.994-1.515-5.734-1.505c-0.771,0.011-2.407,1.005-4.25,1.771c-2.009,0.835-4.206,1.462-4.277,1.855
				c-0.087,0.479-0.191,5.104-0.195,9.284h6.914V12.912z"/>
			
				<linearGradient id="SVGID_6_" gradientUnits="userSpaceOnUse" x1="-219.7393" y1="59.2422" x2="-219.7393" y2="119.9706" gradientTransform="matrix(1 0 0 -1 304 111.3477)">
				<stop  offset="0" style="stop-color:#1C75BC"/>
				<stop  offset="0.0921" style="stop-color:#1F6EAD"/>
				<stop  offset="0.3711" style="stop-color:#295A84"/>
				<stop  offset="0.6252" style="stop-color:#2F4C66"/>
				<stop  offset="0.8432" style="stop-color:#344354"/>
				<stop  offset="1" style="stop-color:#35404E"/>
			</linearGradient>
			<path fill="url(#SVGID_6_)" d="M87.511,41.857c-1.458-0.815-2.932-1.996-4.327-3.679c-0.3,0.788-1.05,1.312-1.899,1.312h-0.273
				l0.033,13.547l5.97,11.553c0.211-0.042,0.327-0.157,0.327-0.157c-0.317-1.036,0.16-14.423,0.16-14.423
				S87.501,46.518,87.511,41.857z"/>
			
				<linearGradient id="SVGID_7_" gradientUnits="userSpaceOnUse" x1="-222.77" y1="59.2432" x2="-222.77" y2="119.9726" gradientTransform="matrix(1 0 0 -1 304 111.3477)">
				<stop  offset="0" style="stop-color:#1C75BC"/>
				<stop  offset="0.0921" style="stop-color:#1F6EAD"/>
				<stop  offset="0.3711" style="stop-color:#295A84"/>
				<stop  offset="0.6252" style="stop-color:#2F4C66"/>
				<stop  offset="0.8432" style="stop-color:#344354"/>
				<stop  offset="1" style="stop-color:#35404E"/>
			</linearGradient>
			<path fill="url(#SVGID_7_)" d="M75.471,55.134c2.368,3.883,9.835,8.532,10.595,9.14c0.393,0.313,0.707,0.356,0.924,0.319
				l-6.408-11.295C78.251,53.172,76.45,54.314,75.471,55.134z"/>
			
				<linearGradient id="SVGID_8_" gradientUnits="userSpaceOnUse" x1="-204.3301" y1="59.2432" x2="-204.3301" y2="119.9741" gradientTransform="matrix(1 0 0 -1 304 111.3477)">
				<stop  offset="0" style="stop-color:#1C75BC"/>
				<stop  offset="0.0921" style="stop-color:#1F6EAD"/>
				<stop  offset="0.3711" style="stop-color:#295A84"/>
				<stop  offset="0.6252" style="stop-color:#2F4C66"/>
				<stop  offset="0.8432" style="stop-color:#344354"/>
				<stop  offset="1" style="stop-color:#35404E"/>
			</linearGradient>
			<path fill="url(#SVGID_8_)" d="M101.208,53.115l-1.037,0.16l-6.424,11.316c0.219,0.037,0.532-0.007,0.926-0.32
				c0.797-0.638,9.006-5.738,10.918-9.722c0,0,0-0.006,0-0.008C104.451,53.177,101.208,53.115,101.208,53.115z"/>
			
				<linearGradient id="SVGID_9_" gradientUnits="userSpaceOnUse" x1="-200.5078" y1="59.2422" x2="-200.5078" y2="119.9669" gradientTransform="matrix(1 0 0 -1 304 111.3477)">
				<stop  offset="0" style="stop-color:#1C75BC"/>
				<stop  offset="0.0921" style="stop-color:#1F6EAD"/>
				<stop  offset="0.3711" style="stop-color:#295A84"/>
				<stop  offset="0.6252" style="stop-color:#2F4C66"/>
				<stop  offset="0.8432" style="stop-color:#344354"/>
				<stop  offset="1" style="stop-color:#35404E"/>
			</linearGradient>
			<path fill="url(#SVGID_9_)" d="M103.916,39.887c-0.15,0.32-0.383,0.594-0.68,0.798c-0.072,0.05-0.867,0.589-2.152,1.185
				l-0.016,10.988c2.951-0.084,4.104,0.961,4.523,1.584c0.021-0.895,0.174-7.354,0.324-14.555H103.916z"/>
			
				<linearGradient id="SVGID_10_" gradientUnits="userSpaceOnUse" x1="-207.5234" y1="59.2422" x2="-207.5234" y2="119.9652" gradientTransform="matrix(1 0 0 -1 304 111.3477)">
				<stop  offset="0" style="stop-color:#1C75BC"/>
				<stop  offset="0.0921" style="stop-color:#1F6EAD"/>
				<stop  offset="0.3711" style="stop-color:#295A84"/>
				<stop  offset="0.6252" style="stop-color:#2F4C66"/>
				<stop  offset="0.8432" style="stop-color:#344354"/>
				<stop  offset="1" style="stop-color:#35404E"/>
			</linearGradient>
			<path fill="url(#SVGID_10_)" d="M99.722,42.438c-1.574,0.588-3.568,1.096-5.758,1.096c-0.237,0-0.482-0.008-0.733-0.021
				c0.007,3.808,0.007,6.496,0.007,6.496s0.479,13.388,0.16,14.423c0,0,0.116,0.115,0.328,0.157l5.968-11.554L99.722,42.438z"/>
		</g>
		
			<linearGradient id="SVGID_11_" gradientUnits="userSpaceOnUse" x1="-210.1816" y1="70.002" x2="-210.1816" y2="103.8256" gradientTransform="matrix(1 0 0 -1 304 111.3477)">
			<stop  offset="0" style="stop-color:#9B8579"/>
			<stop  offset="0.1444" style="stop-color:#897973"/>
			<stop  offset="0.5237" style="stop-color:#5F5D66"/>
			<stop  offset="0.8218" style="stop-color:#464B5E"/>
			<stop  offset="1" style="stop-color:#3C455B"/>
		</linearGradient>
		<path fill="url(#SVGID_11_)" d="M17.212,19.527H2.31c0,0,0-0.036,0-0.101c0.71-1.106,1.933-1.633,1.933-1.633h13.09l1.732,0.777
			l5.093-2.682l-4.794,5.63L17.212,19.527z M4.182,17.075h13.479l1.196,0.479l5.296-1.933H3.706c0,0-1.396,0.519-1.396,1.713
			c0,0.648,0,1.237,0,1.641C2.603,18.279,3.158,17.435,4.182,17.075z M39.371,23.95l-2.056-1.635H26.099l-1.098,1.036h-1.715
			l-0.813,0.598h-0.617l1.215-1.096h1.593l1.156-0.917h11.296l2.232,1.963l-1.524-3.539H23.117l-3.002,3.228l1.777,2.227h3.641
			l1.282-1.757h12.603L39.371,23.95z M24.864,38.572c0,0,0.996,3.267-1.834,3.267c-2.829,0-23.03,0-23.03,0l5.17-5.697
			c0,0,1.403,1.515,3.356,1.515s8.249,0,8.249,0L2.629,20.442h7.172L24.864,38.572z M5.638,39.861l-0.232-2.734l-0.509,2.132
			L1.512,41.3L5.638,39.861z M20.121,36.699C19.866,36.328,8.446,22.714,8.446,22.714l-4.582-1.713l0.12,0.119l3.586,1.993
			l10.917,13.428c0,0,0.479,2.111-0.636,2.867c0,0,2.188,0.16,2.712-0.992C20.876,37.73,20.49,37.234,20.121,36.699z M31.178,27.316
			l0.02,7.112l-0.995,1.634v-8.646l-1.933-2.371l2.431,1.813l3.604-2.352h-6.531v0.239v11.276c0,0,0.356,3.028,2.709,4.543
			l4.022-5.777v-10.28h-0.062L31.178,27.316z M98.714,23.603l5.88-1.885h10.438c5.102,0.718,3.512,5.161,3.067,5.618
			c-0.901,0.931-3.147,3.547-3.706,4.104c-0.557,0.559-0.238,1.236-0.238,1.236l2.67,2.27l6.258,2.131l-6.576-4.68
			c0,0,4.461-4.384,4.781-7.69c0.319-3.307-3.945-4.583-3.945-4.583h-12.988L98.714,23.603z M148.743,27.126L146.785,25v12.138
			l1.958-2.391V27.126z M73.037,21.718c5.102,0.718,3.514,5.161,3.067,5.618c-0.901,0.931-3.147,3.547-3.705,4.104
			c-0.56,0.559-0.239,1.236-0.239,1.236l2.67,2.27l6.256,2.131l-6.573-4.68c0,0,4.462-4.384,4.78-7.69
			c0.319-3.307-3.944-4.583-3.944-4.583h-12.99l-5.638,3.479l5.877-1.885L73.037,21.718L73.037,21.718z M159.222,21.422l3.422-1.369
			l0.016-0.019h-14.105l-3.668,3.385l4.313-1.998L159.222,21.422L159.222,21.422z M162.416,20.32l-3.074,1.984h-10.141l-4.367,1.316
			h14.777L162.416,20.32z M44.563,29.09l1.185-4.416l-2.834,1.936l-1.133,4.054l4.15-0.14l0.718,1.018h-4.304l-0.633-0.633
			l-1.222,4.367l-1.254,0.508l2.659-9.145l-1.354-2.092h-0.062l-3.666,12.91h5.5l1.276-4.762h5.953c0,0-0.616-2.53-1.295-3.605
			H44.563z M87.023,16.418v-1.116l0.398,0.877h12.869l0.638,0.518l5.598-1.993H86.705l-4.184,4.146h0.027L87.023,16.418z
			 M100.169,17.176H86.464l-3.782,1.674h16.651l1.235,1.553l6.613-5.699h-0.132l-5.926,3.308L100.169,17.176z M45.064,20.334
			l-4.811,2.988c2.554,0.13,4.312,0.619,5.525,1.213l0.102,0.048c2.315,1.171,2.563,2.714,2.563,2.714l3.826,10.176l1.371-2.167
			c0,0-3.018-8.966-4.481-11.058c-1.465-2.091-6.872-1.375-6.872-1.375c5.978-1.823,7.769,1.315,7.769,1.315l4.873,10.847
			l-2.536,2.511h6.359c-2.479-6.425-7.321-17.153-7.321-17.153L45.064,20.334z M131.966,20.334l-4.812,2.988
			c2.343,0.12,4.015,0.541,5.211,1.068l-0.002,0.001l0.421,0.191h-0.001c2.316,1.171,2.563,2.714,2.563,2.714l3.827,10.176
			l1.371-2.167c0,0-3.019-8.966-4.482-11.058c-1.464-2.091-6.874-1.375-6.874-1.375c5.978-1.823,7.771,1.315,7.771,1.315
			l4.871,10.848l-2.535,2.51h6.359c-2.479-6.426-7.32-17.153-7.32-17.153L131.966,20.334z M123.719,37.457h0.459l-0.425-0.122
			L123.719,37.457z M131.464,29.09l1.186-4.416l-2.833,1.936l-1.133,4.054l4.149-0.14l0.717,1.018h-4.303l-0.634-0.633l-1.22,4.367
			l-1.254,0.508l2.66-9.145l-1.354-2.092h-0.062l-3.622,12.761l0.438,0.149h5.02l1.278-4.762h5.951c0,0-0.617-2.53-1.294-3.605
			H131.464z M129.517,26.279l3.145-1.732H127.5l1.36,1.732H129.517z M179.224,20.204h-14.706l-2.242,3.062l2.101-1.844h11.295
			l1.154,0.916h1.596l1.217,1.096h-0.619l-0.816-0.598h-1.715l-1.095-1.036h-11.217l-1.978,1.571l-0.126,0.171h12.604l1.281,1.757
			h3.643l1.775-2.227L179.224,20.204z M155.167,29.371h-1.332l5.834-2.036h-7.342v-2.788h-5.544v0.108l2.116,1.725h0.758v7.931
			l1.871,2.377l-1.871-1.215v0.072h-0.648l-2.226,1.876v0.196h5.544v-6.721h3.543l4.148-3.562h-0.172L155.167,29.371z
			 M170.984,27.316l0.021,7.112l-0.998,1.634v-8.646l-1.933-2.371l2.431,1.813l3.604-2.352h-6.532v0.239v11.276
			c0,0,0.359,3.028,2.709,4.543l4.025-5.777v-10.28h-0.063L170.984,27.316z M62.158,27.126l-2.271-2.467v12.86l2.271-2.771V27.126z
			 M42.615,26.279l3.143-1.732h-5.161l1.362,1.732H42.615z M116.708,35.306h-0.877c0,0-1.873-1.594-2.393-2.271
			c-0.516-0.678-0.119-1.475-0.119-1.475l3.945-4.742c1.673-3.786-2.313-4.542-2.313-4.542l-10.08,0.04l-6.498,1.497l-0.155,0.097
			h2.389h0.587h0.088h0.43h11.927c2.592,0.638,1.595,2.75,1.595,2.75l-4.423,5.339c-0.478,0.397-0.08,1.116-0.08,1.116l4.344,4.104
			h8.208l-0.045-0.031L116.708,35.306z M74.71,35.306h-0.877c0,0-1.871-1.594-2.392-2.271c-0.519-0.678-0.118-1.475-0.118-1.475
			l3.944-4.742c1.675-3.786-2.312-4.542-2.312-4.542l-10.082,0.04l-6.496,1.497l-0.156,0.097h2.976l-0.003-0.003h0.086l0.006,0.003
			h12.355c2.591,0.638,1.593,2.75,1.593,2.75l-4.422,5.339c-0.479,0.397-0.08,1.116-0.08,1.116l4.343,4.104h8.209l-0.046-0.031
			L74.71,35.306z M62.317,26.38h0.758v9.165h-0.647l-2.458,2.072h5.776v-13.07h-5.679L62.317,26.38z M85.048,32.257
			c-2.03-5.021-0.237-10.28-0.237-10.28l1.075-0.029c0,0-1.912,6.753,1.375,11.955c2.871,4.541,9.169,6.537,14.15,4.896
			C86.064,39.164,90.13,19.705,90.13,19.705l-7.232-0.179c0,0-3.646,8.546,0.301,14.941c7.489,12.145,18.885,4.303,18.885,4.303
			c-0.149,0.01-0.295,0.014-0.441,0.02C98.007,40.209,90.078,41.863,85.048,32.257z M104.157,27.126l-2.272-2.467v12.86l2.272-2.771
			V27.126z M104.314,26.38h0.759v9.165h-0.649l-2.455,2.072h5.773v-13.07h-5.677L104.314,26.38z M185.391,18.451
			c0.377,0,0.746,0.097,1.106,0.291c0.357,0.193,0.639,0.471,0.838,0.831s0.301,0.736,0.301,1.127c0,0.387-0.101,0.758-0.299,1.117
			c-0.195,0.356-0.473,0.633-0.828,0.832c-0.354,0.198-0.729,0.296-1.118,0.296c-0.388,0-0.763-0.099-1.117-0.296
			c-0.354-0.198-0.634-0.475-0.832-0.832c-0.196-0.358-0.297-0.729-0.297-1.117c0-0.391,0.101-0.767,0.301-1.127
			c0.202-0.36,0.481-0.637,0.843-0.831C184.646,18.548,185.015,18.451,185.391,18.451z M185.391,18.824
			c-0.315,0-0.622,0.08-0.921,0.242c-0.301,0.162-0.532,0.393-0.701,0.694c-0.168,0.301-0.252,0.614-0.252,0.939
			c0,0.323,0.082,0.634,0.249,0.93c0.165,0.296,0.397,0.528,0.694,0.693s0.606,0.249,0.931,0.249c0.323,0,0.635-0.084,0.933-0.249
			c0.297-0.165,0.529-0.397,0.693-0.693c0.165-0.296,0.249-0.607,0.249-0.93c0-0.326-0.085-0.639-0.254-0.939
			c-0.167-0.301-0.399-0.532-0.7-0.694C186.012,18.904,185.707,18.824,185.391,18.824z M184.407,21.94v-2.417h0.831
			c0.283,0,0.488,0.022,0.615,0.065c0.127,0.046,0.229,0.124,0.303,0.235c0.077,0.11,0.115,0.229,0.115,0.353
			c0,0.177-0.063,0.33-0.189,0.462c-0.125,0.132-0.293,0.204-0.5,0.221c0.084,0.036,0.151,0.077,0.203,0.127
			c0.098,0.096,0.217,0.255,0.357,0.479l0.295,0.473h-0.477l-0.215-0.382c-0.168-0.298-0.306-0.486-0.406-0.562
			c-0.072-0.055-0.178-0.083-0.313-0.083h-0.229v1.026h-0.39V21.94z M184.796,20.579h0.474c0.226,0,0.381-0.033,0.462-0.101
			c0.083-0.067,0.124-0.157,0.124-0.268c0-0.072-0.021-0.135-0.062-0.192c-0.039-0.057-0.094-0.098-0.162-0.126
			c-0.071-0.027-0.201-0.042-0.392-0.042h-0.444V20.579z"/>
	</g>
	<g>
	</g>
	<g>
	</g>
	<g>
	</g>
	<g>
	</g>
	<g>
	</g>
	<g>
	</g>
	<g>
	</g>
	<g>
	</g>
	<g>
	</g>
	<g>
	</g>
	<g>
	</g>
	<g>
	</g>
	<g>
	</g>
	<g>
	</g>
	<g>
	</g>
</g>
</svg>
