<?xml version="1.0" encoding="utf-8"?>
<!-- Generator: Adobe Illustrator 16.0.0, SVG Export Plug-In . SVG Version: 6.00 Build 0)  -->
<!DOCTYPE svg PUBLIC "-//W3C//DTD SVG 1.1//EN" "http://www.w3.org/Graphics/SVG/1.1/DTD/svg11.dtd">
<svg version="1.1" id="Capa_1" xmlns="http://www.w3.org/2000/svg" xmlns:xlink="http://www.w3.org/1999/xlink" x="0px" y="0px"
	 width="350px" height="350px" viewBox="0 0 350 350" enable-background="new 0 0 350 350" xml:space="preserve">
<path fill="#FFFFFF" d="M273.03,76.97c-22.431-22.42-58.79-22.42-81.21,0c-9.12,9.12-14.53,20.55-16.23,32.4l-52.48,79.53
	c-8.16,0.42-16.24,2.76-23.51,7.02l-55.85-37.23v51.76l31.1,20.729c-2.98,16.2,1.78,33.54,14.31,46.07
	c20.22,20.22,53.02,20.22,73.25,0c12.42-12.43,17.21-29.59,14.37-45.68l63.85-57.16c5.93-0.85,11.75-2.63,17.22-5.33
	c5.48-2.71,10.62-6.34,15.181-10.9C295.45,135.75,295.45,99.4,273.03,76.97z M125.78,275.15c-18.56,0-33.69-14.641-34.49-33.011
	l18.45,12.301c3.67,2.449,7.82,3.619,11.92,3.619c6.96,0,13.79-3.369,17.94-9.59c6.59-9.899,3.92-23.27-5.98-29.859l-16.93-11.29
	c2.89-0.79,5.94-1.221,9.09-1.221c19.07,0,34.53,15.45,34.53,34.53C160.31,259.7,144.85,275.15,125.78,275.15z M232.42,158.59
	c-22.65,0-41.02-18.36-41.02-41.01c0-22.66,18.369-41.02,41.02-41.02c22.66,0,41.021,18.37,41.021,41.02
	S255.08,158.59,232.42,158.59z"/>
<path fill="#FFFFFF" d="M139.6,248.47c6.59-9.899,3.92-23.27-5.98-29.859l-16.93-11.29c2.89-0.79,5.94-1.221,9.09-1.221
	c19.07,0,34.53,15.45,34.53,34.53c0,19.07-15.46,34.521-34.53,34.521c-18.56,0-33.69-14.641-34.49-33.011l18.45,12.301
	c3.67,2.449,7.82,3.619,11.92,3.619C128.62,258.06,135.45,254.69,139.6,248.47z"/>
<path fill="#FFFFFF" d="M232.42,76.56c-22.65,0-41.02,18.36-41.02,41.02c0,22.65,18.369,41.01,41.02,41.01
	c22.66,0,41.021-18.36,41.021-41.01S255.08,76.56,232.42,76.56z M232.42,142.19c-13.59,0-24.61-11.02-24.61-24.61
	s11.021-24.61,24.61-24.61s24.61,11.02,24.61,24.61S246.01,142.19,232.42,142.19z"/>
<path fill="#212C3B" d="M232.42,76.56c-22.65,0-41.02,18.36-41.02,41.02c0,22.65,18.369,41.01,41.02,41.01
	c22.66,0,41.021-18.36,41.021-41.01S255.08,76.56,232.42,76.56z M232.42,142.19c-13.59,0-24.61-11.02-24.61-24.61
	s11.021-24.61,24.61-24.61s24.61,11.02,24.61,24.61S246.01,142.19,232.42,142.19z M125.78,206.1c-3.15,0-6.2,0.431-9.09,1.221
	l16.93,11.29c9.9,6.59,12.57,19.96,5.98,29.859c-4.15,6.221-10.98,9.59-17.94,9.59c-4.1,0-8.25-1.17-11.92-3.619L91.29,242.14
	c0.8,18.37,15.93,33.011,34.49,33.011c19.07,0,34.53-15.45,34.53-34.521C160.31,221.55,144.85,206.1,125.78,206.1z"/>
<path fill="#212C3B" d="M306.25,87.5v175c0,24.08-19.68,43.75-43.75,43.75h-175c-24.06,0-43.75-19.67-43.75-43.75v-52.05
	l31.1,20.729c-2.98,16.2,1.78,33.54,14.31,46.07c20.22,20.22,53.02,20.22,73.25,0c12.42-12.43,17.21-29.59,14.37-45.68l63.85-57.16
	c5.93-0.85,11.75-2.63,17.22-5.33c5.48-2.71,10.62-6.34,15.181-10.9c22.42-22.43,22.42-58.78,0-81.21
	c-22.431-22.42-58.79-22.42-81.21,0c-9.12,9.12-14.53,20.55-16.23,32.4l-52.48,79.53c-8.16,0.42-16.24,2.76-23.51,7.02l-55.85-37.23
	V87.5c0-24.06,19.69-43.75,43.75-43.75h175C286.57,43.75,306.25,63.44,306.25,87.5z"/>
<circle fill="#FFFFFF" cx="232.42" cy="117.58" r="24.61"/>
</svg>
