<?xml version="1.0" encoding="utf-8"?>
<!-- Generator: Adobe Illustrator 16.0.0, SVG Export Plug-In . SVG Version: 6.00 Build 0)  -->
<!DOCTYPE svg PUBLIC "-//W3C//DTD SVG 1.1//EN" "http://www.w3.org/Graphics/SVG/1.1/DTD/svg11.dtd">
<svg version="1.1" id="Layer_1" xmlns="http://www.w3.org/2000/svg" xmlns:xlink="http://www.w3.org/1999/xlink" x="0px" y="0px"
	 width="350px" height="350px" viewBox="-119.188 -135.659 350 350" enable-background="new -119.188 -135.659 350 350"
	 xml:space="preserve">
<path fill="#212C3B" d="M205.281-15.052L137.471,17.5L86.163,163.608c-0.863,2.439-3.47,5.354-5.8,6.467L54.937,182.28
	c-2.327,1.108-4.023-0.073-3.744-2.648L64.46,52.561l-17.046,8.182C17.037,75.312-51.413,92.973-63.514,83.147
	c-24.89-20.206-55.673-57.144-55.673-57.144s5.666-2.719,14.837-7.125l65.008,20.941l205.829-98.83
	c18.292-8.782,56.555-5.953,63.301,8.093C234.249-41.658,223.801-23.938,205.281-15.052z M-42.676-37.589L13.206-1.653L68.122-28.02
	L-8.291-54.84c-2.443-0.864-6.35-0.644-8.679,0.465L-42.398-42.17C-44.722-41.043-44.851-38.979-42.676-37.589z"/>
</svg>
