<?xml version="1.0" encoding="utf-8"?>
<!-- Generator: Adobe Illustrator 16.0.4, SVG Export Plug-In . SVG Version: 6.00 Build 0)  -->
<!DOCTYPE svg PUBLIC "-//W3C//DTD SVG 1.1//EN" "http://www.w3.org/Graphics/SVG/1.1/DTD/svg11.dtd">
<svg version="1.1" id="Layer_1" xmlns="http://www.w3.org/2000/svg" xmlns:xlink="http://www.w3.org/1999/xlink" x="0px" y="0px"
	 width="50px" height="50px" viewBox="0 0 50 50" enable-background="new 0 0 50 50" xml:space="preserve">
<path d="M19.295,18.018l-6.983,6.984l6.983,6.982c0.78,0.781,0.78,2.047,0,2.828c-0.392,0.391-0.901,0.586-1.414,0.586
	s-1.022-0.195-1.414-0.586l-8.397-8.396c-0.375-0.375-0.586-0.884-0.586-1.414c0-0.529,0.211-1.039,0.586-1.414l8.397-8.398
	c0.781-0.78,2.047-0.78,2.828,0C20.075,15.971,20.075,17.236,19.295,18.018z M41.931,23.588l-8.396-8.398
	c-0.781-0.78-2.047-0.78-2.828,0c-0.781,0.781-0.781,2.047,0,2.828l6.982,6.984l-6.982,6.982c-0.781,0.781-0.781,2.047,0,2.828
	c0.391,0.391,0.902,0.586,1.414,0.586s1.023-0.195,1.414-0.586l8.396-8.396c0.375-0.375,0.586-0.884,0.586-1.414
	C42.517,24.473,42.306,23.963,41.931,23.588z M28.495,11.314c-1.075-0.277-2.16,0.373-2.434,1.441l-6,23.498
	c-0.272,1.07,0.373,2.16,1.442,2.434C21.67,38.73,21.837,38.75,22,38.75c0.894,0,1.706-0.602,1.937-1.505l6-23.498
	C30.211,12.677,29.565,11.587,28.495,11.314z"/>
</svg>
