<?xml version="1.0" encoding="iso-8859-1"?>
<!-- Generator: Adobe Illustrator 16.0.0, SVG Export Plug-In . SVG Version: 6.00 Build 0)  -->
<!DOCTYPE svg PUBLIC "-//W3C//DTD SVG 1.1//EN" "http://www.w3.org/Graphics/SVG/1.1/DTD/svg11.dtd">
<svg version="1.1" xmlns="http://www.w3.org/2000/svg" xmlns:xlink="http://www.w3.org/1999/xlink" x="0px" y="0px"
	 width="27.763px" height="27.461px" viewBox="0 0 27.763 27.461" style="enable-background:new 0 0 27.763 27.461;"
	 xml:space="preserve">
<g id="c60_imac">
	<polygon style="fill:#000000;" points="16.679,21.863 11.083,21.863 8.285,25.594 8.285,27.461 11.083,27.461 16.679,27.461 
		19.478,27.461 19.478,25.594 	"/>
	<path style="fill:#000000;" d="M25.913,0H1.853C0.83,0,0,0.834,0,1.863v17.092c0,1.029,0.83,1.864,1.853,1.864h24.061
		c1.021,0,1.85-0.835,1.85-1.864V1.863C27.763,0.834,26.935,0,25.913,0z M14.006,20.139c-0.884,0-1.601-0.718-1.601-1.602
		c0-0.883,0.717-1.6,1.601-1.6s1.601,0.717,1.601,1.6C15.606,19.421,14.89,20.139,14.006,20.139z M14.023,19.525
		c-0.551,0-0.994-0.445-0.994-0.994c0-0.551,0.443-0.994,0.994-0.994c0.549,0,0.994,0.443,0.994,0.994
		C15.018,19.08,14.572,19.525,14.023,19.525z M25.78,16.395H1.985V1.982H25.78V16.395z"/>
</g>
<g id="Capa_1">
</g>
</svg>
