<?xml version="1.0" encoding="utf-8"?>
<!-- Generator: Adobe Illustrator 16.0.0, SVG Export Plug-In . SVG Version: 6.00 Build 0)  -->
<!DOCTYPE svg PUBLIC "-//W3C//DTD SVG 1.1//EN" "http://www.w3.org/Graphics/SVG/1.1/DTD/svg11.dtd">
<svg version="1.1" id="Layer_1" xmlns="http://www.w3.org/2000/svg" xmlns:xlink="http://www.w3.org/1999/xlink" x="0px" y="0px"
	 width="800px" height="800px" viewBox="0 0 800 800" enable-background="new 0 0 800 800" xml:space="preserve">
<path d="M398.502,489.345l-236.203-72.7v71.524v49.896c0,56.133,105.787,101.644,236.274,101.644
	c130.481,0,236.284-45.511,236.284-101.644c0-0.442-0.144-0.885-0.154-1.318V416.645L398.502,489.345z"/>
<path d="M2.598,333.063l84.383,30.185l7.191-15.401l31-2.635l4.42,4.599l-26.601,6.308l-3.877,11.475
	c-0.007,0-60.087,125.604-51.263,187.05c0,0,37.502,22.37,74.988,0l9.962-168V372.66l55.8-12.588l-3.941,9.705l-41.604,13.529
	l19.242,6.874l236.203,72.7l236.201-72.7l159.699-57.116l-395.9-152.313L2.598,333.063z"/>
</svg>
